<?xml version="1.0" encoding="UTF-8"?>
<svg id="Capa_2" data-name="Capa 2" xmlns="http://www.w3.org/2000/svg" viewBox="0 0 1084 1057">
  <defs>
    <style>
      .cls-1 {
        fill: #fff;
      }

      .cls-2 {
        fill: none;
        stroke: #4e91cd;
        stroke-linecap: round;
        stroke-miterlimit: 10;
        stroke-width: 6px;
      }

      .cls-3 {
        fill: #4991ce;
      }

      .cls-4 {
        fill: #4e91cd;
      }
    </style>
  </defs>
  <g id="Capa_1-2" data-name="Capa 1">
    <ellipse class="cls-1" cx="542" cy="528.5" rx="542" ry="528.5"/>
    <g>
      <path class="cls-2" d="M869.35,504.95c-1.49-4.82-2.95-9.58-4.38-14.29-15.31-50.08-27.95-93.95-37.83-129.36-4.23-15.14-7.96-28.74-11.18-40.61-28.94,32.48-76.65,37.56-115.46,41.12-97.6,8.94-186.58,12.54-186.58,12.54,7.06-21.63,18.98-51.63,39.45-84.11,8.1-12.85,24.68-39.17,46.24-59.16,15.11-14.01,34.77-26.9,56.24-36.89-25.87-6.59-153.55-39.44-272.51,30.26-79.71,46.72-118.49,113.71-133.54,143.75-9.7-4.2-20.58-6.96-32.39-6.9-60.61.36-108.95,75.26-108.97,140.37-.02,68.16,52.94,139.72,108.97,140.36,19.1.22,35.36-7.86,47.24-16.13.16,13.65,1.62,29.13,8.11,51.99,40.26,141.58,215.49,189.46,223.46,191.52,67.42,17.39,173.85-5.08,198.8-10.89,0-.36,31.32-7.3,50.07-17.94,21.64-12.29,148.2-93.62,161.35-169.41,6.42-36.97-3.7-58.03-37.09-166.22Z"/>
      <path class="cls-4" d="M711.93,684.29c-29.53,0-59.14-30.66-68.81-73.39-.37-1.62.65-3.22,2.26-3.59,1.61-.37,3.22.65,3.59,2.26,9.95,43.96,41.74,74.39,70.84,67.84,10.35-2.33,19.36-9.15,26.05-19.74,11.51-18.22,14.77-45.08,8.71-71.85-9.91-43.81-41.51-74.19-70.54-67.91-2.81,1.32-25.87,13.05-25.42,43.06.05,3.65.12,8.18-3.45,8.57-3.18.34-4.68-1.87-9.05-18.15-2.31-8.59-5.2-20.59-8.59-35.66-5.77-25.62-11.08-51.64-11.13-51.9-.33-1.62.72-3.21,2.34-3.54,1.63-.33,3.21.72,3.54,2.34,7.12,34.93,15.59,72.89,20.69,91.08,3.26-29.87,28.65-41.3,28.93-41.42l.26-.11.28-.06c32.34-7.27,67.33,25.19,78.01,72.37,6.4,28.29,2.86,56.84-9.49,76.38-7.56,11.96-17.86,19.7-29.8,22.39-3.05.69-6.12,1.02-9.2,1.02Z"/>
      <path class="cls-4" d="M541.34,566.04c-.84,0-1.68-.35-2.28-1.04-12.56-14.61-20.58-69.92-20.92-72.27-.23-1.64.91-3.16,2.54-3.39,1.64-.24,3.16.9,3.39,2.54.08.56,8.1,55.92,19.53,69.21,1.08,1.26.94,3.15-.32,4.23-.57.49-1.26.73-1.96.73Z"/>
      <path class="cls-4" d="M760.56,518.06c-.98,0-1.94-.48-2.52-1.37-12.96-19.94-21.08-51.38-21.42-52.7-.41-1.61.56-3.24,2.16-3.65,1.6-.41,3.24.56,3.65,2.16.08.32,8.22,31.82,20.64,50.92.9,1.39.51,3.25-.88,4.15-.5.33-1.07.48-1.63.48Z"/>
      <path class="cls-4" d="M290.19,411.31c-1.16,0-2.26-.68-2.75-1.81-5.61-12.94-18.76-29.86-38.83-38.54-1.52-.66-2.22-2.42-1.56-3.94.66-1.52,2.42-2.22,3.94-1.56,21.68,9.38,35.89,27.67,41.96,41.66.66,1.52-.04,3.29-1.56,3.95-.39.17-.79.25-1.19.25Z"/>
      <path class="cls-4" d="M262.23,630.55c-1,0-1.98-.5-2.55-1.41-.88-1.41-.45-3.26.95-4.13,13.25-8.28,24.5-18.69,33.42-30.94,4.03-5.53,7.61-11.48,10.64-17.69.73-1.49,2.52-2.11,4.01-1.38,1.49.73,2.11,2.52,1.38,4.01-3.18,6.53-6.95,12.79-11.18,18.6-9.38,12.87-21.19,23.81-35.09,32.5-.49.31-1.04.46-1.59.46Z"/>
      <g>
        <path class="cls-4" d="M215.52,599.25c-7.37,0-14.51-2.07-20.67-5.99l-.33-.11-.29-.28c-2.48-1.63-4.76-3.54-6.8-5.71l-.1-.11c-3.51-4.1-6.62-9.76-9.25-16.83l-.1-.33c-.74-3-1.11-6.09-1.11-9.19,0-21.26,17.34-38.56,38.66-38.56s38.67,17.3,38.67,38.56-17.35,38.55-38.67,38.55ZM198.04,588.18c5.21,3.32,11.25,5.07,17.48,5.07,18.02,0,32.67-14.6,32.67-32.55s-14.66-32.56-32.67-32.56-32.66,14.61-32.66,32.56c0,2.56.3,5.12.9,7.59,2.36,6.3,5.08,11.28,8.08,14.81,1.68,1.78,3.56,3.35,5.6,4.7l.32.11.28.27Z"/>
        <path class="cls-4" d="M187.43,587.18c-4.62-4.86-7.89-10.84-9.46-17.29l5.73-1.76c2.39,6.41,5.14,11.46,8.19,15.03l-4.46,4.02Z"/>
        <path class="cls-4" d="M185.25,581.83c-.98,0-1.94-.48-2.52-1.36-26.38-40.55-24.99-85.2-19.19-115.52,6.27-32.72,18.54-55.57,19.06-56.53.79-1.46,2.61-1.99,4.07-1.21,1.46.79,2,2.61,1.21,4.07-.12.23-12.41,23.13-18.48,54.97-5.56,29.19-6.9,72.12,18.36,110.94.9,1.39.51,3.25-.88,4.15-.5.33-1.07.49-1.63.49Z"/>
      </g>
      <path class="cls-3" d="M798.7,196.39c27.65,25.58,42.31,78.44,23.75,113.64-.92,1.75-3.58,6.32-8.91,12.3-28.94,32.48-76.65,37.56-115.46,41.12-97.6,8.94-186.58,12.54-186.58,12.54,7.06-21.63,18.98-51.63,39.45-84.11,8.1-12.85,24.68-39.17,46.24-59.16,15.11-14.01,34.77-26.9,56.24-36.89,50.57-23.55,111.08-31.05,145.26.56Z"/>
      <path class="cls-4" d="M863.56,495.72l-.78-2.54c-13.15-43.01-25.88-86.55-37.86-129.43l-.44-1.59,15.66-17.38c8.77-7.03,26.42-18.32,46.16-14.95,34.26,5.87,53.94,51.96,48.01,87.7h0c-2.91,17.54-10.66,34.87-21.82,48.79-12.71,15.84-28.73,25.85-46.33,28.94l-2.61.46ZM831.15,363.73c11.59,41.46,23.89,83.52,36.58,125.11,33.19-7.33,55.57-41.5,60.67-72.28h0c2.72-16.39-.37-35.54-8.26-51.21-8.4-16.67-20.78-27.18-34.84-29.59-17.28-2.96-33.16,7.15-41.2,13.56l-12.94,14.41Z"/>
      <path class="cls-4" d="M579.6,728.65c-1.16,0-2.26-.67-2.75-1.8-.66-1.52.03-3.29,1.55-3.95,36.89-16.07,75.54-28,114.9-35.48,34.65-6.58,80.7-8.65,93.99-9.12,1.67-.03,3.05,1.24,3.11,2.89.06,1.66-1.24,3.05-2.89,3.11-13.18.47-58.84,2.52-93.08,9.02-38.92,7.39-77.15,19.2-113.62,35.08-.39.17-.8.25-1.2.25Z"/>
      <g>
        <path class="cls-4" d="M800.64,867.72l-18.42-9.39,11.18,31.3-16.17-13.02,9.58,26.64-12.59-8.34,2.56,26.81.08.2-.06-.08.02.08-.05-.11-16.65-20.08-2.74,15.71-11.81-25.55-1.93,21.71-13.91-29.97-5.94,21.1-12.92-31.81-4.93,31.24c-2.94-15.03-5.88-30.05-8.81-45.06-.06-.34-.14-.68-.2-1.02,13.23-3.8,31.43-7.74,50.07-18.61,21.26-12.38,39.64-26.32,39.64-26.32l25.56,39.82-24.67-16.97,13.1,31.72Z"/>
        <path class="cls-4" d="M778.23,926.46l-1.89-4.38-15.91-19.19-2.83,16.22-11.7-25.3-1.93,21.7-14.13-30.44-5.97,21.21-12.79-31.5-5.09,32.26-9.36-47.84c-.03-.17-.07-.34-.1-.51-.04-.17-.07-.35-.1-.52l-.08-.45.44-.12c2.01-.58,4.13-1.16,6.36-1.77,12.4-3.39,27.84-7.61,43.6-16.79,20.99-12.23,39.41-26.15,39.59-26.29l.43-.33,27.2,42.36-25.33-17.42,12.98,31.41-18.5-9.43,11.35,31.79-16.16-13.01,9.48,26.38-12.97-8.59,2.46,25.7,1.22,3.16-.8-1.01.54,2.69ZM775.92,920.01l.22.27-2.52-26.35,12.21,8.08-9.67-26.89,16.17,13.02-11-30.82,18.33,9.35-13.23-32.03,24.01,16.52-23.93-37.28c-2.9,2.17-20,14.82-39.26,26.03-15.87,9.25-31.38,13.48-43.84,16.89-2.06.56-4.03,1.1-5.91,1.64,0,.02,0,.04.01.06.04.17.07.35.1.52l8.27,42.28,4.77-30.22,13.04,32.13,5.91-21,13.7,29.5,1.93-21.71,11.93,25.8,2.65-15.2,16.11,19.43h0Z"/>
      </g>
      <path class="cls-4" d="M279.47,394.07c-1.57,0-2.89-1.22-2.99-2.81-.11-1.65,1.15-3.08,2.8-3.19l232.03-15.08c1.66-.1,3.08,1.15,3.19,2.8.11,1.65-1.15,3.08-2.8,3.19l-232.03,15.08c-.07,0-.13,0-.2,0Z"/>
      <g>
        <path class="cls-3" d="M572.93,219.04c2.28-.15,4.01-2.13,3.86-4.41-.15-2.28-2.13-4.02-4.41-3.87-2.29.15-4.02,2.13-3.86,4.41.15,2.29,2.13,4.02,4.41,3.86Z"/>
        <path class="cls-3" d="M588.97,191.87c-2.24.15-3.93,2.09-3.78,4.32.02.28.06.55.14.81.43,1.56,1.76,2.73,3.36,2.94.27.04.54.05.82.03.28-.02.55-.06.81-.14,1.56-.43,2.72-1.76,2.94-3.36.04-.27.05-.54.03-.82-.15-2.24-2.08-3.93-4.32-3.78Z"/>
        <path class="cls-3" d="M517.71,233.57c-2.14.14-3.75,1.99-3.61,4.12.14,2.14,1.99,3.75,4.12,3.61,2.13-.14,3.75-1.99,3.61-4.12-.14-2.13-1.99-3.75-4.12-3.61Z"/>
        <path class="cls-3" d="M555.2,230.31c-.29.02-.58.07-.85.14-1.64.45-2.87,1.85-3.1,3.54-.04.28-.05.57-.03.87.02.29.07.58.14.85.45,1.64,1.85,2.87,3.54,3.1.28.04.57.05.87.03,2.35-.16,4.14-2.19,3.98-4.55-.16-2.35-2.19-4.14-4.55-3.98Z"/>
        <path class="cls-3" d="M536.61,252.98c-1.58.1-2.77,1.47-2.67,3.04.1,1.58,1.47,2.77,3.04,2.67,1.57-.1,2.77-1.47,2.66-3.04-.1-1.57-1.47-2.77-3.04-2.67Z"/>
        <path class="cls-3" d="M500.25,253.67c-2.05.14-3.6,1.91-3.47,3.96.14,2.05,1.91,3.6,3.96,3.47,2.05-.14,3.6-1.91,3.46-3.96-.14-2.05-1.91-3.6-3.96-3.47Z"/>
        <path class="cls-3" d="M535.39,221.53c2.05-.14,3.6-1.91,3.46-3.96-.14-2.05-1.91-3.6-3.96-3.47-2.05.14-3.6,1.91-3.47,3.96.14,2.05,1.91,3.6,3.96,3.47Z"/>
        <path class="cls-3" d="M494.33,220.52c.14,2.05,1.91,3.6,3.96,3.47,2.05-.14,3.6-1.91,3.46-3.96-.14-2.05-1.91-3.6-3.96-3.47-2.05.14-3.6,1.91-3.47,3.96Z"/>
        <path class="cls-3" d="M514.5,196.79c-2.37.16-4.17,2.21-4.01,4.58.02.3.07.58.14.86.45,1.66,1.86,2.89,3.57,3.12.28.04.58.05.87.03.3-.02.58-.07.86-.14,1.65-.45,2.89-1.86,3.12-3.57.04-.28.05-.58.03-.87-.16-2.37-2.21-4.17-4.58-4.01Z"/>
        <path class="cls-3" d="M551.71,194.33c-.29.02-.57.07-.84.14-1.62.44-2.82,1.82-3.05,3.48-.04.28-.05.56-.03.85.02.29.07.57.14.84.44,1.62,1.82,2.82,3.48,3.05.28.04.56.05.85.03.29-.02.57-.07.84-.14,1.62-.44,2.82-1.82,3.05-3.48.04-.28.05-.56.03-.85-.15-2.32-2.16-4.07-4.48-3.92Z"/>
        <path class="cls-3" d="M504.74,335.37c1.54-.1,2.71-1.44,2.61-2.98-.1-1.54-1.44-2.72-2.98-2.61-1.55.1-2.72,1.44-2.61,2.98.1,1.55,1.44,2.72,2.98,2.61Z"/>
        <path class="cls-3" d="M502.62,290.99c-1.99.13-3.5,1.86-3.37,3.85.13,1.99,1.85,3.5,3.85,3.37,1.99-.13,3.5-1.85,3.37-3.85-.13-1.99-1.85-3.5-3.84-3.37Z"/>
        <path class="cls-3" d="M519.23,272.73c-1.57.1-2.76,1.47-2.66,3.04.01.2.05.39.1.57.3,1.1,1.24,1.92,2.36,2.07.19.03.38.03.58.02.2-.01.39-.05.57-.1,1.1-.3,1.91-1.23,2.07-2.36.03-.19.03-.38.02-.58-.1-1.57-1.46-2.76-3.04-2.66Z"/>
        <path class="cls-3" d="M444.55,235.97c-2.81.19-4.93,2.61-4.74,5.42.19,2.81,2.61,4.93,5.42,4.74,2.8-.19,4.93-2.61,4.74-5.42-.19-2.8-2.61-4.93-5.41-4.74Z"/>
        <path class="cls-3" d="M484.63,238.85c-.14-.5-.37-.95-.68-1.35-.15-.2-.32-.38-.51-.54-.56-.49-1.26-.82-2.03-.93-.26-.04-.52-.04-.79-.03-.27.02-.53.06-.78.13-1.5.41-2.61,1.69-2.82,3.22-.04.26-.04.52-.03.79.02.27.06.53.13.78.41,1.5,1.68,2.61,3.22,2.82.26.03.52.04.79.03.27-.02.53-.06.78-.13.75-.21,1.4-.63,1.89-1.19.16-.19.31-.39.44-.61.25-.43.42-.91.49-1.43.04-.26.04-.52.03-.79-.02-.27-.06-.53-.13-.78Z"/>
        <path class="cls-3" d="M463.14,256.12c-2.05.14-3.6,1.91-3.47,3.96.14,2.05,1.91,3.6,3.96,3.47,2.05-.14,3.6-1.91,3.46-3.96-.14-2.05-1.91-3.6-3.96-3.47Z"/>
        <path class="cls-3" d="M427.54,265.94c2.61-.17,4.58-2.43,4.41-5.04-.17-2.61-2.43-4.58-5.04-4.41-2.61.17-4.58,2.43-4.41,5.04.17,2.61,2.43,4.58,5.04,4.41Z"/>
        <path class="cls-3" d="M457.13,221.59c.19,2.81,2.62,4.94,5.43,4.75,2.81-.19,4.94-2.62,4.75-5.43-.19-2.81-2.62-4.94-5.43-4.76-2.81.19-4.94,2.62-4.75,5.43Z"/>
        <path class="cls-3" d="M420.04,224.42c.17,2.61,2.43,4.58,5.04,4.41,2.61-.17,4.58-2.43,4.41-5.04-.17-2.61-2.43-4.58-5.04-4.41-2.61.17-4.58,2.43-4.41,5.04Z"/>
        <path class="cls-3" d="M440.02,201.7c-2.51.17-4.41,2.34-4.24,4.84.02.31.07.62.15.91.48,1.75,1.97,3.06,3.77,3.3.3.04.61.05.92.03.31-.02.62-.07.91-.15,1.75-.48,3.05-1.97,3.3-3.77.04-.3.05-.61.03-.92-.17-2.51-2.34-4.41-4.84-4.24Z"/>
        <path class="cls-3" d="M482.5,201.99c-.17-.6-.45-1.15-.82-1.63-.18-.24-.39-.46-.62-.66-.68-.59-1.53-.99-2.45-1.12-.31-.04-.63-.05-.95-.03-.32.02-.64.08-.94.16-1.81.5-3.15,2.04-3.41,3.89-.04.31-.05.63-.03.95.02.32.07.64.16.94.5,1.81,2.03,3.15,3.89,3.41.31.04.63.05.95.03.32-.02.64-.07.94-.16.9-.25,1.69-.76,2.28-1.43.2-.23.37-.47.53-.73.3-.52.51-1.1.59-1.72.04-.31.05-.63.03-.95-.02-.32-.08-.64-.16-.94Z"/>
        <path class="cls-3" d="M448.15,320.48c1.71-.11,3-1.59,2.89-3.3-.11-1.71-1.59-3-3.3-2.89-1.71.11-3,1.59-2.89,3.3.11,1.71,1.59,3,3.3,2.89Z"/>
        <path class="cls-3" d="M487.88,314.15c-.11-.39-.29-.74-.53-1.05-.12-.15-.25-.3-.4-.42-.44-.38-.99-.64-1.59-.73-.2-.03-.41-.04-.61-.02-.21.01-.41.05-.61.1-1.17.32-2.04,1.32-2.2,2.51-.03.2-.03.41-.02.61.01.21.05.41.1.61.32,1.17,1.31,2.04,2.51,2.2.2.03.41.03.62.02.21-.01.41-.05.61-.1.58-.16,1.09-.49,1.48-.93.13-.15.24-.3.34-.47.2-.34.33-.71.38-1.11.03-.2.04-.41.02-.61-.01-.21-.05-.41-.1-.61Z"/>
        <path class="cls-3" d="M467.63,337.82c1.54-.1,2.71-1.44,2.61-2.98-.1-1.54-1.44-2.71-2.98-2.61-1.54.1-2.71,1.44-2.61,2.98.1,1.54,1.44,2.71,2.98,2.61Z"/>
        <path class="cls-3" d="M427.54,337.69c.1,1.53,1.42,2.69,2.95,2.59,1.53-.1,2.69-1.42,2.59-2.95-.1-1.53-1.42-2.69-2.95-2.59-1.53.1-2.69,1.43-2.59,2.95Z"/>
        <path class="cls-3" d="M465.6,293.23c-2.05.14-3.6,1.91-3.47,3.96.14,2.05,1.91,3.6,3.96,3.47,2.05-.14,3.6-1.91,3.46-3.96-.14-2.05-1.91-3.6-3.96-3.47Z"/>
        <path class="cls-3" d="M428.49,295.69c-2.05.14-3.6,1.91-3.47,3.96.14,2.05,1.91,3.6,3.96,3.47,2.05-.14,3.6-1.91,3.46-3.96-.14-2.05-1.91-3.6-3.96-3.47Z"/>
        <path class="cls-3" d="M445.82,275.91c-2.05.14-3.6,1.91-3.47,3.96.02.26.06.5.12.74.39,1.43,1.61,2.5,3.08,2.7.24.03.5.04.75.03.26-.02.5-.06.74-.12,1.43-.39,2.5-1.61,2.7-3.08.03-.24.04-.5.03-.75-.14-2.05-1.91-3.6-3.96-3.47Z"/>
        <path class="cls-3" d="M486.75,276.17c-.13-.48-.35-.91-.65-1.29-.15-.19-.31-.36-.49-.52-.54-.47-1.21-.79-1.94-.89-.24-.03-.5-.04-.75-.03-.26.02-.5.06-.74.12-1.43.39-2.5,1.61-2.7,3.08-.03.24-.04.5-.03.75.02.26.06.5.12.74.39,1.43,1.61,2.5,3.08,2.7.24.03.5.04.75.03.26-.02.5-.06.74-.12.71-.2,1.34-.6,1.81-1.14.16-.18.3-.37.42-.58.24-.41.4-.87.47-1.36.03-.24.04-.5.03-.75-.02-.26-.06-.5-.13-.74Z"/>
        <path class="cls-3" d="M469.95,374.94c1.18-.08,2.07-1.1,1.99-2.28-.08-1.18-1.1-2.07-2.28-1.99-1.18.08-2.07,1.1-1.99,2.28.08,1.18,1.1,2.07,2.28,1.99Z"/>
        <path class="cls-3" d="M429.99,374.63c.11,1.62,1.51,2.85,3.13,2.74,1.62-.11,2.85-1.51,2.74-3.13-.11-1.62-1.51-2.85-3.13-2.74-1.62.11-2.85,1.51-2.74,3.13Z"/>
        <path class="cls-3" d="M449.65,352.47c-1.41.09-2.47,1.31-2.38,2.71.09,1.41,1.31,2.47,2.71,2.38,1.4-.09,2.47-1.31,2.37-2.71-.09-1.4-1.31-2.47-2.71-2.38Z"/>
        <path class="cls-3" d="M490.46,351.18c-.11-.4-.29-.76-.54-1.08-.12-.16-.26-.3-.41-.43-.45-.39-1.01-.66-1.62-.74-.2-.03-.41-.04-.63-.02-.21.01-.42.05-.62.1-1.19.33-2.08,1.34-2.25,2.57-.03.2-.04.41-.02.63.01.21.05.42.1.62.33,1.19,1.34,2.08,2.57,2.25.2.03.41.04.63.02.21-.01.42-.05.62-.1.6-.16,1.12-.5,1.51-.95.13-.15.25-.31.35-.48.2-.34.34-.73.39-1.14.03-.2.04-.41.02-.63-.01-.21-.05-.42-.1-.62Z"/>
        <path class="cls-3" d="M375.79,245.6c-.19-2.82-2.62-4.95-5.44-4.77-2.82.19-4.95,2.63-4.77,5.44.19,2.82,2.62,4.95,5.44,4.77,2.82-.19,4.95-2.62,4.76-5.44Z"/>
        <path class="cls-3" d="M408.15,239.25c-.31-.04-.63-.05-.96-.03-2.61.17-4.58,2.43-4.41,5.04.17,2.61,2.43,4.58,5.04,4.41.33-.02.64-.08.94-.16,2.12-.58,3.62-2.59,3.47-4.88-.15-2.28-1.9-4.08-4.08-4.38Z"/>
        <path class="cls-3" d="M393.51,264.13c-.15-2.23-2.07-3.92-4.3-3.77-2.23.15-3.92,2.08-3.77,4.3.15,2.23,2.07,3.92,4.3,3.77,2.23-.15,3.91-2.07,3.77-4.3Z"/>
        <path class="cls-3" d="M348.28,266.31c.18,2.68,2.49,4.71,5.17,4.53,2.67-.18,4.7-2.49,4.53-5.17-.18-2.68-2.49-4.71-5.17-4.53-2.68.18-4.71,2.49-4.53,5.17Z"/>
        <path class="cls-3" d="M379.02,320.24c-.17-2.64-2.46-4.65-5.1-4.47-2.65.18-4.65,2.46-4.47,5.11.18,2.65,2.46,4.65,5.11,4.47,2.64-.17,4.65-2.46,4.47-5.11Z"/>
        <path class="cls-3" d="M411.92,315.5c-.24-.03-.5-.04-.75-.03-2.05.14-3.6,1.91-3.47,3.96.14,2.05,1.91,3.6,3.96,3.47.26-.02.5-.06.74-.12,1.67-.46,2.84-2.04,2.72-3.83-.12-1.79-1.49-3.21-3.2-3.44Z"/>
        <path class="cls-3" d="M390.37,339.21c.14,2.05,1.91,3.6,3.96,3.47,2.05-.14,3.6-1.91,3.46-3.96-.14-2.05-1.91-3.6-3.96-3.47-2.05.14-3.6,1.91-3.47,3.96Z"/>
        <path class="cls-3" d="M362.33,340.21c-.17-2.52-2.35-4.43-4.86-4.26-2.52.17-4.43,2.35-4.26,4.87.17,2.52,2.34,4.43,4.87,4.26,2.52-.17,4.43-2.34,4.26-4.87Z"/>
        <path class="cls-3" d="M392.12,296.38c-2.52.17-4.43,2.35-4.26,4.87.17,2.52,2.34,4.43,4.87,4.26,2.52-.17,4.43-2.34,4.26-4.87-.17-2.52-2.35-4.43-4.86-4.26Z"/>
        <path class="cls-3" d="M354.56,299.93c-2.23.15-3.92,2.08-3.77,4.3.15,2.23,2.07,3.92,4.3,3.77,2.23-.15,3.91-2.07,3.77-4.3-.15-2.23-2.08-3.92-4.3-3.77Z"/>
        <path class="cls-3" d="M372.7,278.44c-2.7.18-4.75,2.52-4.57,5.22.02.34.08.67.16.98.52,1.89,2.12,3.29,4.06,3.56.32.04.66.06.99.03.34-.02.66-.08.98-.16,1.88-.52,3.29-2.12,3.56-4.06.04-.32.06-.66.03-.99-.18-2.7-2.52-4.75-5.22-4.57Z"/>
        <path class="cls-3" d="M410.6,276.35c-.31-.04-.63-.05-.96-.03-2.61.17-4.58,2.43-4.41,5.04.02.33.08.64.16.95.5,1.82,2.05,3.18,3.92,3.43.31.04.63.05.96.03.33-.02.64-.08.94-.16,1.82-.5,3.18-2.05,3.43-3.92.04-.31.05-.63.03-.96-.15-2.28-1.9-4.08-4.08-4.38Z"/>
        <path class="cls-3" d="M395.88,379.84c1.55-.1,2.72-1.44,2.62-2.99-.1-1.55-1.44-2.72-2.99-2.62-1.55.1-2.72,1.44-2.62,2.99.1,1.55,1.44,2.72,2.99,2.62Z"/>
        <path class="cls-3" d="M363.14,378.28c-.14-2.05-1.91-3.6-3.96-3.47-2.05.14-3.6,1.91-3.47,3.96.14,2.05,1.91,3.6,3.96,3.47,2.05-.14,3.6-1.91,3.46-3.96Z"/>
        <path class="cls-3" d="M376.51,355.03c-2.05.14-3.6,1.91-3.47,3.96.14,2.05,1.91,3.6,3.96,3.47,2.05-.14,3.6-1.91,3.46-3.96-.14-2.05-1.91-3.6-3.96-3.47Z"/>
        <path class="cls-3" d="M412.59,355.78c-.14-.02-.28-.02-.43-.02-1.18.08-2.07,1.1-1.99,2.27.08,1.18,1.09,2.07,2.27,1.99.15,0,.29-.03.43-.07.96-.26,1.63-1.17,1.56-2.2-.07-1.03-.86-1.84-1.84-1.97Z"/>
        <path class="cls-3" d="M306.18,324.91c-.18-2.73-2.54-4.8-5.27-4.61-2.73.18-4.8,2.54-4.62,5.27.18,2.73,2.54,4.8,5.27,4.61,2.73-.18,4.79-2.54,4.61-5.27Z"/>
        <path class="cls-3" d="M337.89,318.34c-2.61.17-4.58,2.43-4.41,5.04.17,2.61,2.43,4.58,5.04,4.41,2.61-.17,4.58-2.43,4.41-5.04-.17-2.61-2.43-4.58-5.04-4.41Z"/>
        <path class="cls-3" d="M324.21,343.26c-.15-2.23-2.08-3.92-4.3-3.77-2.23.15-3.92,2.08-3.77,4.31.15,2.23,2.07,3.92,4.31,3.77,2.23-.15,3.92-2.07,3.77-4.31Z"/>
        <path class="cls-3" d="M282.27,338.89c-3.08.2-5.41,2.87-5.21,5.94.2,3.08,2.86,5.41,5.94,5.21,3.08-.2,5.41-2.86,5.2-5.94-.2-3.08-2.87-5.41-5.94-5.21Z"/>
        <path class="cls-3" d="M313.62,305.79c.18,2.73,2.53,4.79,5.26,4.61,2.72-.18,4.78-2.53,4.6-5.26-.18-2.72-2.54-4.79-5.26-4.61-2.73.18-4.79,2.54-4.61,5.26Z"/>
        <path class="cls-3" d="M335.75,280.55c-2.8.19-4.92,2.61-4.73,5.4.02.35.08.69.17,1.01.54,1.95,2.2,3.41,4.2,3.68.33.05.68.06,1.03.04.35-.02.69-.08,1.01-.17,1.95-.54,3.41-2.2,3.68-4.2.05-.33.06-.68.04-1.03-.19-2.79-2.6-4.92-5.4-4.73Z"/>
        <path class="cls-3" d="M330.99,268.33c-.15-2.73-2.49-4.82-5.21-4.68-2.73.15-4.82,2.49-4.67,5.22.15,2.73,2.48,4.82,5.22,4.67,2.73-.15,4.82-2.48,4.67-5.22Z"/>
        <path class="cls-3" d="M322.08,377.27c-2.05.14-3.6,1.91-3.47,3.96.14,2.05,1.91,3.6,3.96,3.47,2.05-.14,3.6-1.91,3.46-3.96-.14-2.05-1.91-3.6-3.96-3.47Z"/>
        <path class="cls-3" d="M286.49,387.08c2.61-.17,4.59-2.43,4.42-5.05-.17-2.61-2.43-4.59-5.05-4.42-2.62.17-4.59,2.44-4.42,5.05.17,2.62,2.43,4.59,5.05,4.42Z"/>
        <path class="cls-3" d="M302.96,358.51c-2.44.16-4.29,2.28-4.13,4.72.16,2.44,2.27,4.29,4.72,4.13,2.44-.16,4.29-2.27,4.13-4.72-.16-2.44-2.27-4.29-4.72-4.13Z"/>
        <path class="cls-3" d="M339.41,357.49c-2.05.14-3.6,1.91-3.47,3.96.14,2.05,1.91,3.6,3.96,3.47,2.05-.14,3.6-1.91,3.46-3.96-.14-2.05-1.91-3.6-3.96-3.47Z"/>
        <path class="cls-3" d="M266.44,359.68c-2.8.19-4.92,2.61-4.73,5.4.19,2.8,2.6,4.92,5.4,4.73,2.79-.18,4.91-2.6,4.73-5.4-.18-2.79-2.6-4.92-5.4-4.73Z"/>
        <path class="cls-3" d="M397.57,225.46c-.21-3.12-2.9-5.48-6.02-5.28-3.12.21-5.48,2.91-5.28,6.02.21,3.12,2.9,5.48,6.02,5.28,3.12-.21,5.48-2.9,5.27-6.02Z"/>
        <path class="cls-3" d="M521.27,304.33c-1.53.1-2.69,1.43-2.59,2.96.1,1.53,1.42,2.69,2.96,2.59,1.53-.1,2.69-1.42,2.59-2.96-.1-1.53-1.43-2.69-2.96-2.59Z"/>
        <path class="cls-3" d="M538.79,286.16c-1.65.11-2.89,1.53-2.78,3.18.11,1.65,1.53,2.89,3.18,2.78,1.64-.11,2.89-1.53,2.78-3.18-.11-1.64-1.53-2.89-3.17-2.78Z"/>
        <path class="cls-3" d="M558.01,262.87c-1.58.1-2.78,1.47-2.68,3.06.1,1.58,1.47,2.78,3.06,2.68,1.58-.1,2.78-1.47,2.68-3.06-.1-1.58-1.47-2.78-3.05-2.68Z"/>
        <path class="cls-3" d="M505.27,370.85c1.12-.07,1.97-1.04,1.89-2.16-.07-1.12-1.04-1.97-2.16-1.89-1.12.07-1.97,1.04-1.89,2.16.07,1.12,1.04,1.97,2.16,1.89Z"/>
        <path class="cls-3" d="M589,231.15c-1.57.1-2.75,1.46-2.65,3.02.1,1.57,1.46,2.75,3.02,2.65,1.56-.1,2.75-1.46,2.65-3.02-.1-1.56-1.46-2.75-3.02-2.65Z"/>
        <path class="cls-3" d="M610.24,215.78c1.95-.13,3.43-1.82,3.3-3.77-.13-1.95-1.82-3.43-3.77-3.3-1.95.13-3.43,1.82-3.3,3.77.13,1.95,1.82,3.43,3.77,3.3Z"/>
        <path class="cls-3" d="M576.5,250.9c1.37-.09,2.42-1.15,2.34-2.37-.08-1.22-1.26-2.13-2.63-2.04-1.38.09-2.42,1.15-2.34,2.37.08,1.22,1.26,2.13,2.63,2.04Z"/>
        <path class="cls-3" d="M497.72,183.81c-2.51.17-4.41,2.34-4.24,4.84.02.31.07.62.15.91.48,1.75,1.97,3.06,3.77,3.3.3.04.61.05.92.03.31-.02.62-.07.91-.15,1.75-.48,3.05-1.97,3.3-3.77.04-.3.05-.61.03-.92-.17-2.51-2.34-4.41-4.84-4.24Z"/>
        <path class="cls-3" d="M534.45,178.83c-2.51.17-4.41,2.34-4.24,4.84.02.31.07.62.15.91.48,1.75,1.97,3.06,3.77,3.3.3.04.61.05.92.03.31-.02.62-.07.91-.15,1.75-.48,3.05-1.97,3.3-3.77.04-.3.05-.61.03-.92-.17-2.51-2.34-4.41-4.84-4.24Z"/>
        <path class="cls-3" d="M571.99,178.4c-2.51.17-4.41,2.34-4.24,4.84.02.31.07.62.15.91.48,1.75,1.97,3.06,3.77,3.3.3.04.61.05.92.03.31-.02.62-.07.91-.15,1.75-.48,3.05-1.97,3.3-3.77.04-.3.05-.61.03-.92-.17-2.51-2.34-4.41-4.84-4.24Z"/>
        <path class="cls-3" d="M571.99,178.4c-2.51.17-4.41,2.34-4.24,4.84.02.31.07.62.15.91.48,1.75,1.97,3.06,3.77,3.3.3.04.61.05.92.03.31-.02.62-.07.91-.15,1.75-.48,3.05-1.97,3.3-3.77.04-.3.05-.61.03-.92-.17-2.51-2.34-4.41-4.84-4.24Z"/>
        <path class="cls-3" d="M519.56,346.5c1.12-.07,1.97-1.04,1.89-2.16-.07-1.12-1.04-1.97-2.16-1.9-1.12.07-1.97,1.04-1.89,2.16.07,1.12,1.04,1.97,2.16,1.89Z"/>
        <path class="cls-3" d="M629.01,189.77c-2.51.17-4.41,2.34-4.24,4.84.02.31.07.62.15.91.48,1.75,1.97,3.06,3.77,3.3.3.04.61.05.92.03.31-.02.62-.07.91-.15,1.75-.48,3.05-1.97,3.3-3.77.04-.3.05-.61.03-.92-.17-2.51-2.34-4.41-4.84-4.24Z"/>
        <path class="cls-3" d="M282.34,312.84c-2.51.17-4.41,2.34-4.24,4.84.02.31.07.62.15.91.48,1.75,1.97,3.06,3.77,3.3.3.04.61.05.92.03.31-.02.62-.07.91-.15,1.75-.48,3.05-1.97,3.3-3.77.04-.3.05-.61.03-.92-.17-2.51-2.34-4.41-4.84-4.24Z"/>
      </g>
      <g>
        <path class="cls-3" d="M311.13,288.87c-.15-2.73-2.49-4.82-5.21-4.67-2.73.15-4.82,2.49-4.67,5.22.15,2.73,2.48,4.82,5.22,4.67,2.73-.15,4.82-2.48,4.67-5.22Z"/>
        <path class="cls-3" d="M306.19,294.59c-2.87,0-5.28-2.25-5.44-5.16-.08-1.45.41-2.85,1.38-3.94.97-1.09,2.31-1.73,3.76-1.81,1.47-.08,2.85.41,3.93,1.39,1.08.97,1.73,2.31,1.81,3.76h0c.08,1.45-.41,2.85-1.38,3.94-.97,1.08-2.31,1.72-3.76,1.8-.1,0-.2,0-.3,0ZM306.19,284.68c-.08,0-.17,0-.25,0-1.19.07-2.28.59-3.07,1.48-.79.89-1.19,2.03-1.13,3.21.13,2.45,2.27,4.32,4.69,4.2,1.19-.06,2.28-.59,3.07-1.47s1.2-2.03,1.13-3.21h0c-.07-1.19-.59-2.28-1.47-3.07-.82-.74-1.87-1.14-2.96-1.14Z"/>
      </g>
    </g>
  </g>
</svg>