<?xml version="1.0" encoding="UTF-8"?>
<svg id="Capa_2" data-name="Capa 2" xmlns="http://www.w3.org/2000/svg" viewBox="0 0 3470.18 751.11">
  <defs>
    <style>
      .cls-1 {
        fill: none;
        stroke: #4e91cd;
        stroke-linecap: round;
        stroke-miterlimit: 10;
        stroke-width: 6px;
      }

      .cls-2 {
        fill: #4991ce;
      }

      .cls-3 {
        fill: #4e91cd;
      }
    </style>
  </defs>
  <g id="Capa_1-2" data-name="Capa 1">
    <g>
      <g>
        <path class="cls-2" d="M1159.67,362.86c-15.52-7.47-27.45-17.99-35.79-31.57-8.34-13.58-12.51-29.2-12.51-46.85,0-23.28,5.38-44.23,16.15-62.86,10.77-18.62,25.85-33.17,45.25-43.65,19.4-10.48,41.51-15.71,66.35-15.71,18.82,0,35.5,3.35,50.05,10.04,14.55,6.69,25.41,16.15,32.59,28.37l-41.61,33.17c-9.89-15.9-24.83-23.86-44.81-23.86-13,0-24.44,3.06-34.34,9.17-9.89,6.11-17.61,14.55-23.13,25.32-5.53,10.77-8.29,22.84-8.29,36.23s4.46,24.83,13.39,33.17c8.92,8.34,21.05,12.51,36.38,12.51,19.4,0,35.98-7.86,49.76-23.57l34.05,33.46c-11.06,13.39-23.96,23.04-38.7,28.95-14.75,5.92-31.62,8.88-50.63,8.88-20.57,0-38.61-3.74-54.13-11.2Z"/>
        <path class="cls-2" d="M1452.12,209.65l-9.6,49.76c-4.85-.58-9.02-.87-12.51-.87-12.42,0-22.36,2.96-29.83,8.88-7.47,5.92-12.47,15.28-14.99,28.08l-15.13,74.5h-55.29l31.43-157.72h52.38l-3.49,17.46c13.19-13.39,32.2-20.08,57.04-20.08Z"/>
        <path class="cls-2" d="M1474.52,212.27h55l-31.43,157.72h-55l31.43-157.72ZM1486.75,186.95c-5.82-5.24-8.73-11.74-8.73-19.5,0-9.12,3.25-16.63,9.75-22.55,6.5-5.92,15.08-8.88,25.75-8.88,9.7,0,17.46,2.47,23.28,7.42,5.82,4.95,8.73,11.3,8.73,19.06,0,9.51-3.3,17.27-9.89,23.28-6.6,6.02-15.23,9.02-25.9,9.02-9.51,0-17.17-2.62-22.99-7.86Z"/>
        <path class="cls-2" d="M1556.44,368.24c-12.51-2.91-22.26-6.59-29.25-11.06l20.08-38.7c7.17,4.46,15.71,8,25.61,10.62,9.89,2.62,19.59,3.93,29.1,3.93,16.88,0,25.32-3.78,25.32-11.35,0-3.1-1.99-5.38-5.97-6.84-3.98-1.46-10.33-2.86-19.06-4.22-11.64-2.13-21.2-4.41-28.66-6.84-7.47-2.42-14.02-6.55-19.64-12.37-5.63-5.82-8.44-13.97-8.44-24.44,0-18.23,7.81-32.35,23.43-42.34,15.61-9.99,35.84-14.99,60.67-14.99,11.25,0,22.12,1.12,32.59,3.35,10.48,2.23,19.59,5.29,27.35,9.17l-19.5,38.7c-13.19-7.95-28.81-11.93-46.85-11.93-8.54,0-14.89,1.12-19.06,3.35-4.17,2.23-6.26,5.09-6.26,8.58,0,3.11,1.99,5.38,5.97,6.84,3.97,1.46,10.52,3.05,19.64,4.8,11.25,1.94,20.61,4.17,28.08,6.69,7.47,2.52,13.97,6.69,19.5,12.51,5.53,5.82,8.29,13.78,8.29,23.86,0,18.24-7.86,32.3-23.57,42.2-15.71,9.89-35.79,14.84-60.24,14.84-13.58,0-26.63-1.46-39.14-4.37Z"/>
        <path class="cls-2" d="M1759.41,311.21c-.39,2.72-.58,4.56-.58,5.53,0,4.27,1.21,7.52,3.64,9.75,2.42,2.23,5.97,3.35,10.62,3.35,5.24,0,10.77-1.55,16.59-4.66l6.98,38.12c-10.87,6.21-24.54,9.31-41.03,9.31s-29.2-4.07-38.7-12.22c-9.51-8.15-14.26-19.5-14.26-34.05,0-5.62.48-10.57,1.46-14.84l26.77-134.44h55.29l-8.15,41.03h35.5l-8.15,41.32h-35.5l-10.48,51.8Z"/>
        <path class="cls-2" d="M1847.29,212.27h55l-31.43,157.72h-55l31.43-157.72ZM1859.51,186.95c-5.82-5.24-8.73-11.74-8.73-19.5,0-9.12,3.25-16.63,9.75-22.55,6.5-5.92,15.08-8.88,25.75-8.88,9.7,0,17.46,2.47,23.28,7.42,5.82,4.95,8.73,11.3,8.73,19.06,0,9.51-3.3,17.27-9.89,23.28-6.6,6.02-15.23,9.02-25.9,9.02-9.51,0-17.17-2.62-22.99-7.86Z"/>
        <path class="cls-2" d="M2111.23,327.5l-5.82,41.03c-8.34,2.71-17.27,4.07-26.77,4.07-12.22,0-22.31-2.33-30.26-6.98-7.96-4.66-13.49-11.06-16.59-19.21-13.2,17.46-30.95,26.19-53.25,26.19-11.64,0-22.55-2.86-32.74-8.58-10.19-5.72-18.38-14.01-24.59-24.88-6.21-10.86-9.31-23.67-9.31-38.41,0-17.07,3.83-32.54,11.49-46.42,7.66-13.87,18.04-24.78,31.14-32.74,13.1-7.95,27.4-11.93,42.92-11.93,22.89,0,38.99,7.18,48.31,21.53l3.78-18.92h55.29l-19.79,98.07c-.39,2.72-.58,4.66-.58,5.82,0,9.12,4.85,13.68,14.55,13.68,5.04,0,9.12-.77,12.22-2.33ZM2024.8,315.86c6.98-8.15,10.48-18.72,10.48-31.72,0-9.31-2.67-16.68-8-22.12-5.34-5.43-12.66-8.15-21.97-8.15-11.06,0-20.08,4.07-27.06,12.22-6.98,8.15-10.48,18.82-10.48,32.01,0,9.31,2.66,16.64,8,21.97,5.33,5.34,12.66,8,21.97,8,11.06,0,20.08-4.07,27.06-12.22Z"/>
        <path class="cls-2" d="M2296.74,223.47c10.38,9.22,15.57,22.46,15.57,39.72,0,6.4-.68,12.9-2.04,19.5l-17.46,87.3h-55.29l16.3-82.06c.77-3.3,1.16-6.79,1.16-10.48,0-13.97-7.28-20.95-21.83-20.95-9.7,0-17.66,2.96-23.86,8.88-6.21,5.92-10.58,14.79-13.09,26.63l-15.71,77.99h-55.29l31.43-157.72h52.38l-3.2,16.3c6.79-6.4,14.45-11.15,22.99-14.26,8.54-3.1,17.36-4.66,26.48-4.66,17.26,0,31.09,4.61,41.47,13.82Z"/>
        <path class="cls-2" d="M2613.34,281.09c4.75,6.89,7.13,14.99,7.13,24.3,0,21.15-8.63,37.2-25.9,48.16-17.27,10.96-39.77,16.44-67.51,16.44h-112.04l40.74-203.7h103.01c22.89,0,40.4,4.12,52.53,12.37,12.12,8.25,18.19,20.03,18.19,35.36,0,11.83-3.2,22.07-9.6,30.7-6.4,8.63-15.33,15.38-26.77,20.22,8.73,3.88,15.47,9.27,20.22,16.15ZM2554.41,322.27c5.82-4.07,8.73-10.08,8.73-18.04,0-5.82-2.14-10.14-6.4-12.95-4.27-2.81-10.09-4.22-17.46-4.22h-50.92l-8.15,41.32h50.05c10.28,0,18.33-2.04,24.15-6.11ZM2504.36,207.9l-7.86,39.29h41.32c10.28,0,18.09-1.99,23.43-5.97,5.33-3.97,8-9.75,8-17.31,0-10.67-8.05-16-24.15-16h-40.74Z"/>
        <path class="cls-2" d="M2777.17,217.65c11.74,5.34,20.9,13.34,27.5,24.01,6.59,10.67,9.89,23.57,9.89,38.7,0,1.94-.2,5.24-.58,9.89l-116.98,21.53c2.13,6.4,6.06,11.11,11.79,14.11,5.72,3.01,13.43,4.51,23.13,4.51,6.79,0,13.43-1.11,19.93-3.35,6.5-2.23,12.37-5.38,17.61-9.46l22.99,34.63c-18.43,13.58-40.84,20.37-67.22,20.37-16.69,0-31.38-2.96-44.09-8.88-12.71-5.92-22.51-14.26-29.39-25.03-6.89-10.77-10.33-23.43-10.33-37.98,0-17.26,4.02-32.83,12.08-46.71,8.05-13.87,19.3-24.73,33.76-32.59,14.45-7.86,31.09-11.79,49.91-11.79,14.94,0,28.27,2.67,40.01,8ZM2709.66,258.1c-6.31,6.11-10.53,14.21-12.66,24.3l66.35-12.22c-1.16-6.79-4.32-12.03-9.46-15.71-5.14-3.68-11.69-5.53-19.64-5.53-10.09,0-18.29,3.05-24.59,9.17Z"/>
        <path class="cls-2" d="M2957.45,209.65l-9.6,49.76c-4.85-.58-9.02-.87-12.51-.87-12.42,0-22.36,2.96-29.83,8.88-7.47,5.92-12.47,15.28-14.99,28.08l-15.13,74.5h-55.29l31.43-157.72h52.38l-3.49,17.46c13.19-13.39,32.2-20.08,57.04-20.08Z"/>
        <path class="cls-2" d="M3119.97,223.47c10.38,9.22,15.57,22.46,15.57,39.72,0,6.4-.68,12.9-2.04,19.5l-17.46,87.3h-55.29l16.3-82.06c.77-3.3,1.16-6.79,1.16-10.48,0-13.97-7.28-20.95-21.83-20.95-9.7,0-17.66,2.96-23.86,8.88-6.21,5.92-10.58,14.79-13.09,26.63l-15.71,77.99h-55.29l31.43-157.72h52.38l-3.2,16.3c6.79-6.4,14.45-11.15,22.99-14.26,8.54-3.1,17.36-4.66,26.48-4.66,17.26,0,31.09,4.61,41.47,13.82Z"/>
        <path class="cls-2" d="M3357.86,327.5l-5.82,41.03c-8.34,2.71-17.27,4.07-26.77,4.07-12.22,0-22.31-2.33-30.26-6.98-7.96-4.66-13.49-11.06-16.59-19.21-13.2,17.46-30.95,26.19-53.25,26.19-11.64,0-22.55-2.86-32.74-8.58-10.19-5.72-18.38-14.01-24.59-24.88-6.21-10.86-9.31-23.67-9.31-38.41,0-17.07,3.83-32.54,11.49-46.42,7.66-13.87,18.04-24.78,31.14-32.74,13.1-7.95,27.4-11.93,42.92-11.93,22.89,0,38.99,7.18,48.31,21.53l3.78-18.92h55.29l-19.79,98.07c-.39,2.72-.58,4.66-.58,5.82,0,9.12,4.85,13.68,14.55,13.68,5.04,0,9.12-.77,12.22-2.33ZM3271.43,315.86c6.98-8.15,10.48-18.72,10.48-31.72,0-9.31-2.67-16.68-8-22.12-5.34-5.43-12.66-8.15-21.97-8.15-11.06,0-20.08,4.07-27.06,12.22-6.98,8.15-10.48,18.82-10.48,32.01,0,9.31,2.66,16.64,8,21.97,5.33,5.34,12.66,8,21.97,8,11.06,0,20.08-4.07,27.06-12.22Z"/>
        <path class="cls-2" d="M3394.81,360.68c-8.93-7.95-13.39-19.01-13.39-33.17,0-4.85.58-9.89,1.75-15.13l31.72-158.3h55.29l-31.14,156.27c-.39,1.56-.58,3.69-.58,6.4,0,4.46,1.26,7.76,3.78,9.89,2.52,2.14,6.01,3.2,10.48,3.2s8.73-.77,12.22-2.33l-5.82,41.03c-8.73,2.71-17.66,4.07-26.77,4.07-16.11,0-28.62-3.97-37.54-11.93Z"/>
      </g>
      <g>
        <path class="cls-2" d="M1117.32,577.92v-118.57h12.92c3.31,0,6.67.01,10.09.04,3.42.03,6.38.07,8.9.12,14.43.27,26.17,2.75,35.22,7.42,9.05,4.67,15.69,11.32,19.93,19.93,4.24,8.61,6.36,18.98,6.36,31.12s-2.25,23.48-6.76,32.39c-4.51,8.91-11.4,15.73-20.66,20.46-9.27,4.73-21.03,7.09-35.3,7.09h-30.67ZM1137.58,561.44h10.74c8.15,0,15.33-1.41,21.57-4.22,6.23-2.81,11.11-7.39,14.64-13.74,3.53-6.34,5.29-14.81,5.29-25.42s-1.64-18.5-4.92-24.68c-3.28-6.18-7.98-10.65-14.1-13.41-6.12-2.76-13.45-4.14-21.98-4.14h-11.23v85.61Z"/>
        <path class="cls-2" d="M1230.32,478.29v-18.86h19.84v18.86h-19.84ZM1230.73,577.92v-84.79h19.11v84.79h-19.11Z"/>
        <path class="cls-2" d="M1305.18,579.56c-5.9,0-11.49-.94-16.77-2.83-5.28-1.89-9.7-4.85-13.28-8.9-3.58-4.04-5.84-9.27-6.77-15.66h17.55c.77,3.12,2.12,5.66,4.06,7.63,1.94,1.97,4.24,3.4,6.89,4.3,2.65.9,5.4,1.35,8.24,1.35,5.08,0,9.18-.87,12.3-2.62,3.12-1.75,4.67-4.46,4.67-8.12,0-2.68-.86-4.81-2.58-6.4-1.72-1.58-4.52-2.79-8.4-3.61l-16.07-3.69c-7.22-1.58-12.98-4.21-17.3-7.87-4.32-3.66-6.51-8.83-6.56-15.5-.05-5.03,1.2-9.51,3.77-13.45,2.57-3.94,6.4-7.04,11.48-9.31,5.08-2.27,11.34-3.4,18.78-3.4,9.89,0,17.83,2.2,23.82,6.6,5.99,4.4,9.06,10.67,9.22,18.82h-16.97c-.6-3.66-2.32-6.52-5.17-8.57-2.84-2.05-6.53-3.08-11.07-3.08s-8.56.9-11.56,2.71c-3.01,1.8-4.51,4.57-4.51,8.28,0,2.57,1.13,4.59,3.4,6.07,2.27,1.48,5.73,2.73,10.37,3.77l15.25,3.69c4.37,1.09,7.95,2.57,10.74,4.43,2.79,1.86,4.96,3.9,6.52,6.11,1.56,2.21,2.65,4.48,3.28,6.81.63,2.32.94,4.47.94,6.44,0,5.47-1.41,10.13-4.22,13.98-2.82,3.85-6.78,6.82-11.89,8.9-5.11,2.08-11.17,3.12-18.16,3.12Z"/>
        <path class="cls-2" d="M1395.05,579.56c-8.15,0-15.32-1.73-21.53-5.21-6.21-3.47-11.04-8.43-14.51-14.88-3.47-6.45-5.21-14.13-5.21-23.04s1.57-16.41,4.71-23.17c3.14-6.75,7.71-12.07,13.69-15.95,5.99-3.88,13.21-5.82,21.69-5.82s15.39,1.78,21.07,5.33,10,8.51,12.96,14.88c2.95,6.37,4.43,13.82,4.43,22.34v6.07h-58.63c-.05,4.81.71,9.08,2.3,12.79,1.58,3.72,3.94,6.63,7.05,8.73,3.12,2.11,6.97,3.16,11.56,3.16s8.79-1.05,12.26-3.16c3.47-2.1,5.78-5.32,6.93-9.63h18.2c-.98,5.9-3.32,10.91-7.01,15.01-3.69,4.1-8.17,7.22-13.45,9.35-5.28,2.13-10.78,3.2-16.52,3.2ZM1373.65,527.74h39.85c0-4.1-.73-7.8-2.17-11.11-1.45-3.31-3.62-5.93-6.52-7.87-2.9-1.94-6.56-2.91-10.99-2.91s-8.06,1.07-11.07,3.2c-3.01,2.13-5.28,4.88-6.81,8.24-1.53,3.36-2.3,6.85-2.3,10.46Z"/>
        <path class="cls-2" d="M1451.31,577.92v-84.79h19.6v12.14c1.31-2.19,3.1-4.28,5.37-6.27,2.27-2,5.07-3.62,8.41-4.88,3.33-1.26,7.24-1.89,11.73-1.89,5.25,0,10.13,1.03,14.64,3.08,4.51,2.05,8.15,5.29,10.91,9.72,2.76,4.43,4.14,10.14,4.14,17.14v55.76h-20.01v-53.38c0-5.58-1.53-9.72-4.59-12.42-3.06-2.71-6.92-4.06-11.56-4.06-3.17,0-6.18.53-9.02,1.6-2.84,1.07-5.15,2.68-6.93,4.84-1.78,2.16-2.67,4.85-2.67,8.08v55.35h-20.01ZM1466.39,479.19l-3.28-10.91c1.91-1.86,4-3.47,6.27-4.84,2.27-1.37,5.12-2.05,8.57-2.05,2.9,0,5.63.4,8.2,1.19,2.57.79,5.07,1.6,7.5,2.42,2.43.82,4.88,1.23,7.34,1.23,2.68,0,5.03-.55,7.05-1.64,2.02-1.09,3.88-2.27,5.58-3.53l2.79,12.3c-1.59,1.2-3.66,2.38-6.23,3.53-2.57,1.15-5.63,1.72-9.18,1.72-3.01,0-5.7-.37-8.08-1.11s-4.69-1.48-6.93-2.21c-2.24-.74-4.67-1.11-7.3-1.11s-4.98.45-6.72,1.35c-1.75.9-3.61,2.12-5.58,3.65Z"/>
        <path class="cls-2" d="M1571.52,579.56c-5.41,0-10.26-1-14.55-2.99-4.29-2-7.65-4.87-10.09-8.61-2.43-3.74-3.65-8.29-3.65-13.65,0-9.35,3.38-16.4,10.13-21.16,6.75-4.76,17.51-7.24,32.27-7.46l12.71-.33v-5.74c0-4.48-1.33-8-3.98-10.54-2.65-2.54-6.76-3.76-12.34-3.65-4.16,0-7.93.94-11.32,2.83s-5.63,5.04-6.72,9.47h-16.97c.33-5.79,2.01-10.65,5.04-14.55,3.03-3.91,7.2-6.83,12.5-8.77,5.3-1.94,11.42-2.91,18.37-2.91,8.09,0,14.68,1.07,19.76,3.2,5.08,2.13,8.83,5.21,11.23,9.23,2.41,4.02,3.61,8.87,3.61,14.55v59.45h-16.81l-1.64-15.25c-3.06,6.4-6.92,10.81-11.56,13.24-4.65,2.43-9.98,3.65-15.99,3.65ZM1578,566.03c2.46,0,4.89-.45,7.3-1.35,2.4-.9,4.58-2.13,6.52-3.69,1.94-1.56,3.5-3.29,4.67-5.21,1.17-1.91,1.79-3.91,1.85-5.99v-13.37l-10.41.16c-5.14.06-9.64.62-13.49,1.68-3.85,1.07-6.85,2.72-8.98,4.96-2.13,2.24-3.2,5.25-3.2,9.02,0,4.32,1.5,7.7,4.51,10.13,3.01,2.43,6.75,3.65,11.23,3.65Z"/>
        <path class="cls-2" d="M1670.33,579.56c-11.21,0-20.01-3.85-26.4-11.56-6.4-7.71-9.59-18.67-9.59-32.88,0-8.86,1.3-16.55,3.9-23.08,2.6-6.53,6.44-11.59,11.52-15.17,5.08-3.58,11.34-5.37,18.78-5.37,3.5,0,6.68.42,9.55,1.27,2.87.85,5.42,1.96,7.67,3.32,2.24,1.37,4.14,2.87,5.7,4.51,1.56,1.64,2.77,3.28,3.65,4.92v-49.45h20.09v121.85h-14.76l-2.21-17.38c-.71,2.02-1.71,4.14-2.99,6.35-1.29,2.21-3.01,4.28-5.17,6.19-2.16,1.91-4.85,3.47-8.08,4.67-3.23,1.2-7.11,1.8-11.64,1.8ZM1674.43,564.88c7.16,0,12.39-2.34,15.7-7.01,3.31-4.67,4.96-12.42,4.96-23.25-.06-6.18-.81-11.37-2.25-15.58-1.45-4.21-3.65-7.38-6.6-9.51s-6.81-3.2-11.56-3.2c-6.01,0-10.95,2.21-14.8,6.64-3.85,4.43-5.78,11.64-5.78,21.65s1.78,17.48,5.33,22.59c3.55,5.11,8.55,7.67,15.01,7.67Z"/>
        <path class="cls-2" d="M1773.32,579.56c-8.09,0-15.14-1.73-21.16-5.21-6.01-3.47-10.67-8.46-13.98-14.96-3.31-6.5-4.96-14.32-4.96-23.45s1.61-16.62,4.84-23.29c3.23-6.67,7.83-11.86,13.82-15.58s13.16-5.58,21.53-5.58,15.11,1.78,21.07,5.33c5.96,3.55,10.56,8.64,13.82,15.25,3.25,6.62,4.88,14.57,4.88,23.86,0,8.58-1.54,16.14-4.63,22.67-3.09,6.53-7.6,11.66-13.53,15.38-5.93,3.72-13.16,5.58-21.69,5.58ZM1773.4,564.39c4.59,0,8.38-1.26,11.36-3.77,2.98-2.51,5.21-5.96,6.68-10.33,1.48-4.37,2.21-9.35,2.21-14.92,0-5.19-.66-9.98-1.97-14.35-1.31-4.37-3.46-7.88-6.44-10.54-2.98-2.65-6.93-3.98-11.85-3.98-4.65,0-8.49,1.22-11.52,3.65-3.03,2.43-5.29,5.82-6.76,10.17-1.48,4.35-2.21,9.36-2.21,15.05,0,5.14.66,9.91,1.97,14.31,1.31,4.4,3.47,7.95,6.48,10.66,3.01,2.71,7.02,4.06,12.05,4.06Z"/>
        <path class="cls-2" d="M1831.29,577.92v-84.79h19.19v18.37c1.37-4.21,3.32-7.8,5.86-10.78,2.54-2.98,5.54-5.26,8.98-6.85,3.44-1.58,7.19-2.38,11.23-2.38.98,0,1.94.05,2.87.16.93.11,1.61.3,2.05.57v19.11c-.6-.27-1.38-.46-2.34-.57-.96-.11-1.79-.16-2.5-.16-4.1-.33-7.72-.16-10.87.49-3.14.66-5.79,1.76-7.95,3.32-2.16,1.56-3.79,3.53-4.88,5.9-1.09,2.38-1.64,5.15-1.64,8.32v49.28h-20.01Z"/>
        <path class="cls-2" d="M1973.4,605.97c-14.27,0-25.23-1.91-32.88-5.74s-11.48-9.08-11.48-15.74c0-3.01.74-5.52,2.21-7.54,1.48-2.02,3.23-3.69,5.25-5,2.02-1.31,3.88-2.32,5.58-3.03,1.69-.71,2.76-1.23,3.2-1.56-.88-.55-2.08-1.26-3.61-2.13-1.53-.87-2.91-2.08-4.14-3.61-1.23-1.53-1.84-3.53-1.84-5.99,0-2.84,1.35-5.47,4.06-7.87,2.71-2.41,6.76-4.13,12.18-5.17-5.3-2.57-9.38-6.04-12.22-10.41-2.84-4.37-4.26-8.91-4.26-13.61,0-5.58,1.63-10.36,4.88-14.35,3.25-3.99,7.78-7.05,13.57-9.18,5.79-2.13,12.55-3.2,20.25-3.2,5.63,0,10.32.63,14.06,1.89,3.74,1.26,7.23,2.95,10.46,5.08,1.09-.44,2.62-1.05,4.59-1.84,1.97-.79,4.13-1.67,6.48-2.62,2.35-.96,4.62-1.89,6.81-2.79,2.19-.9,4.02-1.65,5.49-2.25l-.08,16.48-14.68,2.62c.71,1.59,1.27,3.31,1.68,5.17.41,1.86.62,3.5.62,4.92,0,4.92-1.38,9.47-4.14,13.65-2.76,4.18-6.89,7.53-12.38,10.04-5.49,2.51-12.34,3.77-20.54,3.77-.82,0-1.94-.03-3.36-.08-1.42-.05-2.57-.11-3.44-.16-4.43.16-7.46.68-9.1,1.56-1.64.88-2.46,1.83-2.46,2.87,0,1.48,1.23,2.46,3.69,2.95s6.4.93,11.81,1.31c1.91.11,4.43.25,7.54.41,3.12.16,6.59.38,10.41.66,9.68.6,17,3.02,21.98,7.26,4.97,4.24,7.46,9.72,7.46,16.44,0,7.82-3.61,14.24-10.82,19.27-7.22,5.03-18.15,7.54-32.8,7.54ZM1976.76,594.24c7.16,0,12.46-.98,15.91-2.95,3.44-1.97,5.17-4.87,5.17-8.69,0-2.9-1.18-5.29-3.53-7.17-2.35-1.89-5.85-2.99-10.5-3.32l-21.4-1.31c-2.35-.16-4.58.26-6.68,1.27-2.11,1.01-3.81,2.41-5.12,4.18-1.31,1.78-1.97,3.73-1.97,5.86,0,3.99,2.28,7.01,6.85,9.06,4.56,2.05,11.66,3.08,21.28,3.08ZM1973.15,534.22c5.19,0,9.4-1.33,12.63-3.98,3.22-2.65,4.84-6.41,4.84-11.28s-1.61-8.88-4.84-11.73c-3.23-2.84-7.44-4.26-12.63-4.26s-9.58,1.42-12.83,4.26c-3.25,2.84-4.88,6.75-4.88,11.73,0,4.7,1.56,8.42,4.67,11.15s7.46,4.1,13.04,4.1Z"/>
        <path class="cls-2" d="M2038.26,577.92v-84.79h19.19v18.37c1.37-4.21,3.32-7.8,5.86-10.78,2.54-2.98,5.54-5.26,8.98-6.85,3.44-1.58,7.19-2.38,11.23-2.38.98,0,1.94.05,2.87.16.93.11,1.61.3,2.05.57v19.11c-.6-.27-1.38-.46-2.34-.57-.96-.11-1.79-.16-2.5-.16-4.1-.33-7.72-.16-10.87.49-3.14.66-5.79,1.76-7.95,3.32-2.16,1.56-3.79,3.53-4.88,5.9-1.09,2.38-1.64,5.15-1.64,8.32v49.28h-20.01Z"/>
        <path class="cls-2" d="M2126.49,579.56c-5.41,0-10.26-1-14.55-2.99-4.29-2-7.65-4.87-10.09-8.61-2.43-3.74-3.65-8.29-3.65-13.65,0-9.35,3.38-16.4,10.13-21.16,6.75-4.76,17.51-7.24,32.27-7.46l12.71-.33v-5.74c0-4.48-1.33-8-3.98-10.54-2.65-2.54-6.76-3.76-12.34-3.65-4.16,0-7.93.94-11.32,2.83s-5.63,5.04-6.72,9.47h-16.97c.33-5.79,2.01-10.65,5.04-14.55,3.03-3.91,7.2-6.83,12.5-8.77,5.3-1.94,11.42-2.91,18.37-2.91,8.09,0,14.68,1.07,19.76,3.2,5.08,2.13,8.83,5.21,11.23,9.23,2.41,4.02,3.61,8.87,3.61,14.55v59.45h-16.81l-1.64-15.25c-3.06,6.4-6.92,10.81-11.56,13.24-4.65,2.43-9.98,3.65-15.99,3.65ZM2132.97,566.03c2.46,0,4.89-.45,7.3-1.35,2.4-.9,4.58-2.13,6.52-3.69,1.94-1.56,3.5-3.29,4.67-5.21,1.17-1.91,1.79-3.91,1.85-5.99v-13.37l-10.41.16c-5.14.06-9.64.62-13.49,1.68-3.85,1.07-6.85,2.72-8.98,4.96-2.13,2.24-3.2,5.25-3.2,9.02,0,4.32,1.5,7.7,4.51,10.13,3.01,2.43,6.75,3.65,11.23,3.65Z"/>
        <path class="cls-2" d="M2200.87,577.92v-70.68h-16.65v-14.1h16.65v-12.63c0-6.78,1.89-12,5.66-15.66,3.77-3.66,9.21-5.49,16.32-5.49h17.88l.08,13.61h-11.81c-3.23,0-5.44.83-6.64,2.5-1.2,1.67-1.8,4.28-1.8,7.83v9.84h19.43v14.1h-19.11v70.68h-20.01ZM2255.56,478.29v-18.86h19.84v18.86h-19.84ZM2255.97,577.92v-84.79h19.11v84.79h-19.11Z"/>
        <path class="cls-2" d="M2333.54,579.56c-7.76,0-14.67-1.71-20.71-5.12-6.04-3.42-10.78-8.39-14.23-14.92-3.44-6.53-5.17-14.42-5.17-23.66s1.63-16.52,4.88-23.17c3.25-6.64,7.87-11.83,13.86-15.58,5.99-3.74,13.11-5.62,21.36-5.62,6.61,0,12.44,1.31,17.47,3.94,5.03,2.62,9.06,6.26,12.09,10.91,3.03,4.65,4.85,9.95,5.45,15.91h-16.97c-.44-2.62-1.39-5.1-2.87-7.42-1.48-2.32-3.46-4.21-5.95-5.66-2.49-1.45-5.51-2.17-9.06-2.17-6.4,0-11.56,2.35-15.5,7.05-3.94,4.7-5.9,11.92-5.9,21.65,0,8.97,1.87,16.1,5.62,21.4,3.74,5.3,9.11,7.95,16.11,7.95,3.5,0,6.49-.78,8.98-2.34,2.49-1.56,4.47-3.5,5.95-5.82,1.48-2.32,2.4-4.66,2.79-7.01h16.56c-.49,5.74-2.27,10.85-5.33,15.33-3.06,4.48-7.11,8-12.14,10.54-5.03,2.54-10.8,3.81-17.3,3.81Z"/>
        <path class="cls-2" d="M2422.59,579.56c-8.09,0-15.14-1.73-21.16-5.21-6.01-3.47-10.67-8.46-13.98-14.96-3.31-6.5-4.96-14.32-4.96-23.45s1.61-16.62,4.84-23.29c3.23-6.67,7.83-11.86,13.82-15.58s13.16-5.58,21.53-5.58,15.11,1.78,21.07,5.33c5.96,3.55,10.56,8.64,13.82,15.25,3.25,6.62,4.88,14.57,4.88,23.86,0,8.58-1.54,16.14-4.63,22.67-3.09,6.53-7.6,11.66-13.53,15.38-5.93,3.72-13.16,5.58-21.69,5.58ZM2422.68,564.39c4.59,0,8.38-1.26,11.36-3.77,2.98-2.51,5.21-5.96,6.68-10.33,1.48-4.37,2.21-9.35,2.21-14.92,0-5.19-.66-9.98-1.97-14.35-1.31-4.37-3.46-7.88-6.44-10.54-2.98-2.65-6.93-3.98-11.85-3.98-4.65,0-8.49,1.22-11.52,3.65-3.03,2.43-5.29,5.82-6.76,10.17-1.48,4.35-2.21,9.36-2.21,15.05,0,5.14.66,9.91,1.97,14.31,1.31,4.4,3.47,7.95,6.48,10.66,3.01,2.71,7.02,4.06,12.05,4.06Z"/>
        <path class="cls-2" d="M2554.12,579.56c-8.15,0-15.32-1.73-21.53-5.21-6.21-3.47-11.04-8.43-14.51-14.88-3.47-6.45-5.21-14.13-5.21-23.04s1.57-16.41,4.71-23.17c3.14-6.75,7.71-12.07,13.69-15.95,5.99-3.88,13.21-5.82,21.69-5.82s15.39,1.78,21.07,5.33,10,8.51,12.96,14.88c2.95,6.37,4.43,13.82,4.43,22.34v6.07h-58.63c-.05,4.81.71,9.08,2.3,12.79,1.58,3.72,3.94,6.63,7.05,8.73,3.12,2.11,6.97,3.16,11.56,3.16s8.79-1.05,12.26-3.16c3.47-2.1,5.78-5.32,6.93-9.63h18.2c-.98,5.9-3.32,10.91-7.01,15.01-3.69,4.1-8.17,7.22-13.45,9.35-5.28,2.13-10.78,3.2-16.52,3.2ZM2532.72,527.74h39.85c0-4.1-.73-7.8-2.17-11.11-1.45-3.31-3.62-5.93-6.52-7.87-2.9-1.94-6.56-2.91-10.99-2.91s-8.06,1.07-11.07,3.2c-3.01,2.13-5.28,4.88-6.81,8.24-1.53,3.36-2.3,6.85-2.3,10.46Z"/>
        <path class="cls-2" d="M2647.93,478.29v-18.86h19.84v18.86h-19.84ZM2648.34,577.92v-84.79h19.11v84.79h-19.11Z"/>
        <path class="cls-2" d="M2715.5,579.15c-5.47,0-9.84-.68-13.12-2.05-3.28-1.37-5.74-3.2-7.38-5.49-1.64-2.3-2.72-4.88-3.24-7.75-.52-2.87-.78-5.81-.78-8.81v-98.97h19.6v96.68c0,3.66.75,6.51,2.25,8.53,1.5,2.02,3.95,3.2,7.34,3.53l4.26.16v12.55c-1.48.44-2.98.82-4.51,1.15-1.53.33-3.01.49-4.43.49Z"/>
        <path class="cls-2" d="M2772.32,579.56c-4.15,0-8.16-.61-12.01-1.84-3.85-1.23-7.31-3.03-10.37-5.41-3.06-2.38-5.49-5.32-7.3-8.81-1.8-3.5-2.71-7.57-2.71-12.22v-58.14h20.01v55.84c0,4.59,1.46,8.36,4.39,11.32,2.92,2.95,7.34,4.43,13.24,4.43,5.36,0,9.65-1.41,12.87-4.22,3.23-2.82,4.84-6.87,4.84-12.18v-55.19h19.84v84.79h-15.33l-2.21-16.56c-1.04,4.65-2.86,8.3-5.45,10.95-2.6,2.65-5.63,4.52-9.1,5.62-3.47,1.09-7.04,1.64-10.7,1.64Z"/>
        <path class="cls-2" d="M2870.14,579.56c-5.9,0-11.49-.94-16.77-2.83-5.28-1.89-9.7-4.85-13.28-8.9-3.58-4.04-5.84-9.27-6.77-15.66h17.55c.77,3.12,2.12,5.66,4.06,7.63,1.94,1.97,4.24,3.4,6.89,4.3,2.65.9,5.4,1.35,8.24,1.35,5.08,0,9.18-.87,12.3-2.62,3.12-1.75,4.67-4.46,4.67-8.12,0-2.68-.86-4.81-2.58-6.4-1.72-1.58-4.52-2.79-8.4-3.61l-16.07-3.69c-7.22-1.58-12.98-4.21-17.3-7.87-4.32-3.66-6.51-8.83-6.56-15.5-.05-5.03,1.2-9.51,3.77-13.45,2.57-3.94,6.4-7.04,11.48-9.31,5.08-2.27,11.34-3.4,18.78-3.4,9.89,0,17.83,2.2,23.82,6.6,5.99,4.4,9.06,10.67,9.22,18.82h-16.97c-.6-3.66-2.32-6.52-5.17-8.57-2.84-2.05-6.53-3.08-11.07-3.08s-8.56.9-11.56,2.71c-3.01,1.8-4.51,4.57-4.51,8.28,0,2.57,1.13,4.59,3.4,6.07,2.27,1.48,5.73,2.73,10.37,3.77l15.25,3.69c4.37,1.09,7.95,2.57,10.74,4.43,2.79,1.86,4.96,3.9,6.52,6.11,1.56,2.21,2.65,4.48,3.28,6.81.63,2.32.94,4.47.94,6.44,0,5.47-1.41,10.13-4.22,13.98-2.82,3.85-6.78,6.82-11.89,8.9-5.11,2.08-11.17,3.12-18.16,3.12Z"/>
        <path class="cls-2" d="M2955.51,578.66c-6.72,0-11.93-.9-15.62-2.71-3.69-1.8-6.25-4.35-7.67-7.63-1.42-3.28-2.13-7.19-2.13-11.73v-49.36h-13.78v-14.1h14.35l5-25.17h14.35v25.09h18.94v14.19h-18.94l.08,48.63c0,2.51.29,4.36.86,5.53.57,1.18,1.5,1.94,2.79,2.3,1.28.36,2.99.53,5.12.53h10.5v12.63c-1.15.44-2.83.85-5.04,1.23s-5.15.57-8.82.57Z"/>
        <path class="cls-2" d="M2987.65,577.92v-84.79h19.19v18.37c1.37-4.21,3.32-7.8,5.86-10.78,2.54-2.98,5.54-5.26,8.98-6.85,3.44-1.58,7.19-2.38,11.23-2.38.98,0,1.94.05,2.87.16.93.11,1.61.3,2.05.57v19.11c-.6-.27-1.38-.46-2.34-.57-.96-.11-1.79-.16-2.5-.16-4.1-.33-7.72-.16-10.87.49-3.14.66-5.79,1.76-7.95,3.32-2.16,1.56-3.79,3.53-4.88,5.9-1.09,2.38-1.64,5.15-1.64,8.32v49.28h-20.01Z"/>
        <path class="cls-2" d="M3075.88,579.56c-5.41,0-10.26-1-14.55-2.99-4.29-2-7.65-4.87-10.09-8.61-2.43-3.74-3.65-8.29-3.65-13.65,0-9.35,3.38-16.4,10.13-21.16,6.75-4.76,17.51-7.24,32.27-7.46l12.71-.33v-5.74c0-4.48-1.33-8-3.98-10.54-2.65-2.54-6.76-3.76-12.34-3.65-4.16,0-7.93.94-11.32,2.83s-5.63,5.04-6.72,9.47h-16.97c.33-5.79,2.01-10.65,5.04-14.55,3.03-3.91,7.2-6.83,12.5-8.77,5.3-1.94,11.42-2.91,18.37-2.91,8.09,0,14.68,1.07,19.76,3.2,5.08,2.13,8.83,5.21,11.23,9.23,2.41,4.02,3.61,8.87,3.61,14.55v59.45h-16.81l-1.64-15.25c-3.06,6.4-6.92,10.81-11.56,13.24-4.65,2.43-9.98,3.65-15.99,3.65ZM3082.36,566.03c2.46,0,4.89-.45,7.3-1.35,2.4-.9,4.58-2.13,6.52-3.69,1.94-1.56,3.5-3.29,4.67-5.21,1.17-1.91,1.79-3.91,1.85-5.99v-13.37l-10.41.16c-5.14.06-9.64.62-13.49,1.68-3.85,1.07-6.85,2.72-8.98,4.96-2.13,2.24-3.2,5.25-3.2,9.02,0,4.32,1.5,7.7,4.51,10.13,3.01,2.43,6.75,3.65,11.23,3.65Z"/>
        <path class="cls-2" d="M3174.69,579.56c-11.21,0-20.01-3.85-26.4-11.56-6.4-7.71-9.59-18.67-9.59-32.88,0-8.86,1.3-16.55,3.9-23.08,2.6-6.53,6.44-11.59,11.52-15.17,5.08-3.58,11.34-5.37,18.78-5.37,3.5,0,6.68.42,9.55,1.27,2.87.85,5.42,1.96,7.67,3.32,2.24,1.37,4.14,2.87,5.7,4.51,1.56,1.64,2.77,3.28,3.65,4.92v-49.45h20.09v121.85h-14.76l-2.21-17.38c-.71,2.02-1.71,4.14-2.99,6.35-1.29,2.21-3.01,4.28-5.17,6.19-2.16,1.91-4.85,3.47-8.08,4.67-3.23,1.2-7.11,1.8-11.64,1.8ZM3178.79,564.88c7.16,0,12.39-2.34,15.7-7.01,3.31-4.67,4.96-12.42,4.96-23.25-.06-6.18-.81-11.37-2.25-15.58-1.45-4.21-3.65-7.38-6.6-9.51s-6.81-3.2-11.56-3.2c-6.01,0-10.95,2.21-14.8,6.64-3.85,4.43-5.78,11.64-5.78,21.65s1.78,17.48,5.33,22.59c3.55,5.11,8.55,7.67,15.01,7.67Z"/>
        <path class="cls-2" d="M3277.68,579.56c-8.09,0-15.14-1.73-21.16-5.21-6.01-3.47-10.67-8.46-13.98-14.96-3.31-6.5-4.96-14.32-4.96-23.45s1.61-16.62,4.84-23.29c3.23-6.67,7.83-11.86,13.82-15.58s13.16-5.58,21.53-5.58,15.11,1.78,21.07,5.33c5.96,3.55,10.56,8.64,13.82,15.25,3.25,6.62,4.88,14.57,4.88,23.86,0,8.58-1.54,16.14-4.63,22.67-3.09,6.53-7.6,11.66-13.53,15.38-5.93,3.72-13.16,5.58-21.69,5.58ZM3277.77,564.39c4.59,0,8.38-1.26,11.36-3.77,2.98-2.51,5.21-5.96,6.68-10.33,1.48-4.37,2.21-9.35,2.21-14.92,0-5.19-.66-9.98-1.97-14.35-1.31-4.37-3.46-7.88-6.44-10.54-2.98-2.65-6.93-3.98-11.85-3.98-4.65,0-8.49,1.22-11.52,3.65-3.03,2.43-5.29,5.82-6.76,10.17-1.48,4.35-2.21,9.36-2.21,15.05,0,5.14.66,9.91,1.97,14.31,1.31,4.4,3.47,7.95,6.48,10.66,3.01,2.71,7.02,4.06,12.05,4.06Z"/>
        <path class="cls-2" d="M3335.66,577.92v-84.79h19.19v18.37c1.37-4.21,3.32-7.8,5.86-10.78,2.54-2.98,5.54-5.26,8.98-6.85,3.44-1.58,7.19-2.38,11.23-2.38.98,0,1.94.05,2.87.16.93.11,1.61.3,2.05.57v19.11c-.6-.27-1.38-.46-2.34-.57-.96-.11-1.79-.16-2.5-.16-4.1-.33-7.72-.16-10.87.49-3.14.66-5.79,1.76-7.95,3.32-2.16,1.56-3.79,3.53-4.88,5.9-1.09,2.38-1.64,5.15-1.64,8.32v49.28h-20.01Z"/>
      </g>
    </g>
    <g>
      <path class="cls-1" d="M763.91,329.61c-1.49-4.82-2.95-9.58-4.38-14.29-15.31-50.08-27.95-93.95-37.83-129.36-4.23-15.14-7.96-28.74-11.18-40.61-28.94,32.48-76.65,37.56-115.46,41.12-97.6,8.94-186.58,12.54-186.58,12.54,7.06-21.63,18.98-51.63,39.45-84.11,8.1-12.85,24.68-39.17,46.24-59.16,15.11-14.01,34.77-26.9,56.24-36.89-25.87-6.59-153.55-39.44-272.51,30.26-79.71,46.72-118.49,113.71-133.54,143.75-9.7-4.2-20.58-6.96-32.39-6.9-60.61.36-108.95,75.26-108.97,140.37-.02,68.16,52.94,139.72,108.97,140.36,19.1.22,35.36-7.86,47.24-16.13.16,13.65,1.62,29.13,8.11,51.99,40.26,141.58,215.49,189.46,223.46,191.52,67.42,17.39,173.85-5.08,198.8-10.89,0-.36,31.32-7.3,50.07-17.94,21.64-12.29,148.2-93.62,161.35-169.41,6.42-36.97-3.7-58.03-37.09-166.22Z"/>
      <path class="cls-3" d="M606.49,508.95c-29.53,0-59.14-30.66-68.81-73.39-.37-1.62.65-3.22,2.26-3.59,1.61-.37,3.22.65,3.59,2.26,9.95,43.96,41.74,74.39,70.84,67.84,10.35-2.33,19.36-9.15,26.05-19.74,11.51-18.22,14.77-45.08,8.71-71.85-9.91-43.81-41.51-74.19-70.54-67.91-2.81,1.32-25.87,13.05-25.42,43.06.05,3.65.12,8.18-3.45,8.57-3.18.34-4.68-1.87-9.05-18.15-2.31-8.59-5.2-20.59-8.59-35.66-5.77-25.62-11.08-51.64-11.13-51.9-.33-1.62.72-3.21,2.34-3.54,1.63-.33,3.21.72,3.54,2.34,7.12,34.93,15.59,72.89,20.69,91.08,3.26-29.87,28.65-41.3,28.93-41.42l.26-.11.28-.06c32.34-7.27,67.33,25.19,78.01,72.37,6.4,28.29,2.86,56.84-9.49,76.38-7.56,11.96-17.86,19.7-29.8,22.39-3.05.69-6.12,1.02-9.2,1.02Z"/>
      <path class="cls-3" d="M435.9,390.7c-.84,0-1.68-.35-2.28-1.04-12.56-14.61-20.58-69.92-20.92-72.27-.23-1.64.91-3.16,2.54-3.39,1.64-.24,3.16.9,3.39,2.54.08.56,8.1,55.92,19.53,69.21,1.08,1.26.94,3.15-.32,4.23-.57.49-1.26.73-1.96.73Z"/>
      <path class="cls-3" d="M655.12,342.72c-.98,0-1.94-.48-2.52-1.37-12.96-19.94-21.08-51.38-21.42-52.7-.41-1.61.56-3.24,2.16-3.65,1.6-.41,3.24.56,3.65,2.16.08.32,8.22,31.82,20.64,50.92.9,1.39.51,3.25-.88,4.15-.5.33-1.07.48-1.63.48Z"/>
      <path class="cls-3" d="M184.75,235.97c-1.16,0-2.26-.68-2.75-1.81-5.61-12.94-18.76-29.86-38.83-38.54-1.52-.66-2.22-2.42-1.56-3.94.66-1.52,2.42-2.22,3.94-1.56,21.68,9.38,35.89,27.67,41.96,41.66.66,1.52-.04,3.29-1.56,3.95-.39.17-.79.25-1.19.25Z"/>
      <path class="cls-3" d="M156.79,455.21c-1,0-1.98-.5-2.55-1.41-.88-1.41-.45-3.26.95-4.13,13.25-8.28,24.5-18.69,33.42-30.94,4.03-5.53,7.61-11.48,10.64-17.69.73-1.49,2.52-2.11,4.01-1.38,1.49.73,2.11,2.52,1.38,4.01-3.18,6.53-6.95,12.79-11.18,18.6-9.38,12.87-21.19,23.81-35.09,32.5-.49.31-1.04.46-1.59.46Z"/>
      <g>
        <path class="cls-3" d="M110.08,423.91c-7.37,0-14.51-2.07-20.67-5.99l-.33-.11-.29-.28c-2.48-1.63-4.76-3.54-6.8-5.71l-.1-.11c-3.51-4.1-6.62-9.76-9.25-16.83l-.1-.33c-.74-3-1.11-6.09-1.11-9.19,0-21.26,17.34-38.56,38.66-38.56s38.67,17.3,38.67,38.56-17.35,38.55-38.67,38.55ZM92.6,412.84c5.21,3.32,11.25,5.07,17.48,5.07,18.02,0,32.67-14.6,32.67-32.55s-14.66-32.56-32.67-32.56-32.66,14.61-32.66,32.56c0,2.56.3,5.12.9,7.59,2.36,6.3,5.08,11.28,8.08,14.81,1.68,1.78,3.56,3.35,5.6,4.7l.32.11.28.27Z"/>
        <path class="cls-3" d="M81.99,411.83c-4.62-4.86-7.89-10.84-9.46-17.29l5.73-1.76c2.39,6.41,5.14,11.46,8.19,15.03l-4.46,4.02Z"/>
        <path class="cls-3" d="M79.81,406.49c-.98,0-1.94-.48-2.52-1.36-26.38-40.55-24.99-85.2-19.19-115.52,6.27-32.72,18.54-55.57,19.06-56.53.79-1.46,2.61-1.99,4.07-1.21,1.46.79,2,2.61,1.21,4.07-.12.23-12.41,23.13-18.48,54.97-5.56,29.19-6.9,72.12,18.36,110.94.9,1.39.51,3.25-.88,4.15-.5.33-1.07.49-1.63.49Z"/>
      </g>
      <path class="cls-2" d="M693.26,21.05c27.65,25.58,42.31,78.44,23.75,113.64-.92,1.75-3.58,6.32-8.91,12.3-28.94,32.48-76.65,37.56-115.46,41.12-97.6,8.94-186.58,12.54-186.58,12.54,7.06-21.63,18.98-51.63,39.45-84.11,8.1-12.85,24.68-39.17,46.24-59.16,15.11-14.01,34.77-26.9,56.24-36.89,50.57-23.55,111.08-31.05,145.26.56Z"/>
      <path class="cls-3" d="M758.12,320.38l-.78-2.54c-13.15-43.01-25.88-86.55-37.86-129.43l-.44-1.59,15.66-17.38c8.77-7.03,26.42-18.32,46.16-14.95,34.26,5.87,53.94,51.96,48.01,87.7h0c-2.91,17.54-10.66,34.87-21.82,48.79-12.71,15.84-28.73,25.85-46.33,28.94l-2.61.46ZM725.71,188.39c11.59,41.46,23.89,83.52,36.58,125.11,33.19-7.33,55.57-41.5,60.67-72.28h0c2.72-16.39-.37-35.54-8.26-51.21-8.4-16.67-20.78-27.18-34.84-29.59-17.28-2.96-33.16,7.15-41.2,13.56l-12.94,14.41Z"/>
      <path class="cls-3" d="M474.16,553.31c-1.16,0-2.26-.67-2.75-1.8-.66-1.52.03-3.29,1.55-3.95,36.89-16.07,75.54-28,114.9-35.48,34.65-6.58,80.7-8.65,93.99-9.12,1.67-.03,3.05,1.24,3.11,2.89.06,1.66-1.24,3.05-2.89,3.11-13.18.47-58.84,2.52-93.08,9.02-38.92,7.39-77.15,19.2-113.62,35.08-.39.17-.8.25-1.2.25Z"/>
      <g>
        <path class="cls-3" d="M695.2,692.38l-18.42-9.39,11.18,31.3-16.17-13.02,9.58,26.64-12.59-8.34,2.56,26.81.08.2-.06-.08.02.08-.05-.11-16.65-20.08-2.74,15.71-11.81-25.55-1.93,21.71-13.91-29.97-5.94,21.1-12.92-31.81-4.93,31.24c-2.94-15.03-5.88-30.05-8.81-45.06-.06-.34-.14-.68-.2-1.02,13.23-3.8,31.43-7.74,50.07-18.61,21.26-12.38,39.64-26.32,39.64-26.32l25.56,39.82-24.67-16.97,13.1,31.72Z"/>
        <path class="cls-3" d="M672.79,751.11l-1.89-4.38-15.91-19.19-2.83,16.22-11.7-25.3-1.93,21.7-14.13-30.44-5.97,21.21-12.79-31.5-5.09,32.26-9.36-47.84c-.03-.17-.07-.34-.1-.51-.04-.17-.07-.35-.1-.52l-.08-.45.44-.12c2.01-.58,4.13-1.16,6.36-1.77,12.4-3.39,27.84-7.61,43.6-16.79,20.99-12.23,39.41-26.15,39.59-26.29l.43-.33,27.2,42.36-25.33-17.42,12.98,31.41-18.5-9.43,11.35,31.79-16.16-13.01,9.48,26.38-12.97-8.59,2.46,25.7,1.22,3.16-.8-1.01.54,2.69ZM670.48,744.66l.22.27-2.52-26.35,12.21,8.08-9.67-26.89,16.17,13.02-11-30.82,18.33,9.35-13.23-32.03,24.01,16.52-23.93-37.28c-2.9,2.17-20,14.82-39.26,26.03-15.87,9.25-31.38,13.48-43.84,16.89-2.06.56-4.03,1.1-5.91,1.64,0,.02,0,.04.01.06.04.17.07.35.1.52l8.27,42.28,4.77-30.22,13.04,32.13,5.91-21,13.7,29.5,1.93-21.71,11.93,25.8,2.65-15.2,16.11,19.43h0Z"/>
      </g>
      <path class="cls-3" d="M174.03,218.73c-1.57,0-2.89-1.22-2.99-2.81-.11-1.65,1.15-3.08,2.8-3.19l232.03-15.08c1.66-.1,3.08,1.15,3.19,2.8.11,1.65-1.15,3.08-2.8,3.19l-232.03,15.08c-.07,0-.13,0-.2,0Z"/>
      <g>
        <path class="cls-2" d="M467.49,43.7c2.28-.15,4.01-2.13,3.86-4.41-.15-2.28-2.13-4.02-4.41-3.87-2.29.15-4.02,2.13-3.86,4.41.15,2.29,2.13,4.02,4.41,3.86Z"/>
        <path class="cls-2" d="M483.54,16.53c-2.24.15-3.93,2.09-3.78,4.32.02.28.06.55.14.81.43,1.56,1.76,2.73,3.36,2.94.27.04.54.05.82.03.28-.02.55-.06.81-.14,1.56-.43,2.72-1.76,2.94-3.36.04-.27.05-.54.03-.82-.15-2.24-2.08-3.93-4.32-3.78Z"/>
        <path class="cls-2" d="M412.27,58.23c-2.14.14-3.75,1.99-3.61,4.12.14,2.14,1.99,3.75,4.12,3.61,2.13-.14,3.75-1.99,3.61-4.12-.14-2.13-1.99-3.75-4.12-3.61Z"/>
        <path class="cls-2" d="M449.76,54.97c-.29.02-.58.07-.85.14-1.64.45-2.87,1.85-3.1,3.54-.04.28-.05.57-.03.87.02.29.07.58.14.85.45,1.64,1.85,2.87,3.54,3.1.28.04.57.05.87.03,2.35-.16,4.14-2.19,3.98-4.55-.16-2.35-2.19-4.14-4.55-3.98Z"/>
        <path class="cls-2" d="M431.18,77.64c-1.58.1-2.77,1.47-2.67,3.04.1,1.58,1.47,2.77,3.04,2.67,1.57-.1,2.77-1.47,2.66-3.04-.1-1.57-1.47-2.77-3.04-2.67Z"/>
        <path class="cls-2" d="M394.81,78.33c-2.05.14-3.6,1.91-3.47,3.96.14,2.05,1.91,3.6,3.96,3.47,2.05-.14,3.6-1.91,3.46-3.96-.14-2.05-1.91-3.6-3.96-3.47Z"/>
        <path class="cls-2" d="M429.95,46.18c2.05-.14,3.6-1.91,3.46-3.96-.14-2.05-1.91-3.6-3.96-3.47-2.05.14-3.6,1.91-3.47,3.96.14,2.05,1.91,3.6,3.96,3.47Z"/>
        <path class="cls-2" d="M388.89,45.18c.14,2.05,1.91,3.6,3.96,3.47,2.05-.14,3.6-1.91,3.46-3.96-.14-2.05-1.91-3.6-3.96-3.47-2.05.14-3.6,1.91-3.47,3.96Z"/>
        <path class="cls-2" d="M409.06,21.44c-2.37.16-4.17,2.21-4.01,4.58.02.3.07.58.14.86.45,1.66,1.86,2.89,3.57,3.12.28.04.58.05.87.03.3-.02.58-.07.86-.14,1.65-.45,2.89-1.86,3.12-3.57.04-.28.05-.58.03-.87-.16-2.37-2.21-4.17-4.58-4.01Z"/>
        <path class="cls-2" d="M446.27,18.99c-.29.02-.57.07-.84.14-1.62.44-2.82,1.82-3.05,3.48-.04.28-.05.56-.03.85.02.29.07.57.14.84.44,1.62,1.82,2.82,3.48,3.05.28.04.56.05.85.03.29-.02.57-.07.84-.14,1.62-.44,2.82-1.82,3.05-3.48.04-.28.05-.56.03-.85-.15-2.32-2.16-4.07-4.48-3.92Z"/>
        <path class="cls-2" d="M399.3,160.02c1.54-.1,2.71-1.44,2.61-2.98-.1-1.54-1.44-2.72-2.98-2.61-1.55.1-2.72,1.44-2.61,2.98.1,1.55,1.44,2.72,2.98,2.61Z"/>
        <path class="cls-2" d="M397.18,115.65c-1.99.13-3.5,1.86-3.37,3.85.13,1.99,1.85,3.5,3.85,3.37,1.99-.13,3.5-1.85,3.37-3.85-.13-1.99-1.85-3.5-3.84-3.37Z"/>
        <path class="cls-2" d="M413.79,97.39c-1.57.1-2.76,1.47-2.66,3.04.01.2.05.39.1.57.3,1.1,1.24,1.92,2.36,2.07.19.03.38.03.58.02.2-.01.39-.05.57-.1,1.1-.3,1.91-1.23,2.07-2.36.03-.19.03-.38.02-.58-.1-1.57-1.46-2.76-3.04-2.66Z"/>
        <path class="cls-2" d="M339.11,60.63c-2.81.19-4.93,2.61-4.74,5.42.19,2.81,2.61,4.93,5.42,4.74,2.8-.19,4.93-2.61,4.74-5.42-.19-2.8-2.61-4.93-5.41-4.74Z"/>
        <path class="cls-2" d="M379.19,63.51c-.14-.5-.37-.95-.68-1.35-.15-.2-.32-.38-.51-.54-.56-.49-1.26-.82-2.03-.93-.26-.04-.52-.04-.79-.03-.27.02-.53.06-.78.13-1.5.41-2.61,1.69-2.82,3.22-.04.26-.04.52-.03.79.02.27.06.53.13.78.41,1.5,1.68,2.61,3.22,2.82.26.03.52.04.79.03.27-.02.53-.06.78-.13.75-.21,1.4-.63,1.89-1.19.16-.19.31-.39.44-.61.25-.43.42-.91.49-1.43.04-.26.04-.52.03-.79-.02-.27-.06-.53-.13-.78Z"/>
        <path class="cls-2" d="M357.7,80.78c-2.05.14-3.6,1.91-3.47,3.96.14,2.05,1.91,3.6,3.96,3.47,2.05-.14,3.6-1.91,3.46-3.96-.14-2.05-1.91-3.6-3.96-3.47Z"/>
        <path class="cls-2" d="M322.1,90.59c2.61-.17,4.58-2.43,4.41-5.04-.17-2.61-2.43-4.58-5.04-4.41-2.61.17-4.58,2.43-4.41,5.04.17,2.61,2.43,4.58,5.04,4.41Z"/>
        <path class="cls-2" d="M351.69,46.25c.19,2.81,2.62,4.94,5.43,4.75,2.81-.19,4.94-2.62,4.75-5.43-.19-2.81-2.62-4.94-5.43-4.76-2.81.19-4.94,2.62-4.75,5.43Z"/>
        <path class="cls-2" d="M314.61,49.08c.17,2.61,2.43,4.58,5.04,4.41,2.61-.17,4.58-2.43,4.41-5.04-.17-2.61-2.43-4.58-5.04-4.41-2.61.17-4.58,2.43-4.41,5.04Z"/>
        <path class="cls-2" d="M334.59,26.36c-2.51.17-4.41,2.34-4.24,4.84.02.31.07.62.15.91.48,1.75,1.97,3.06,3.77,3.3.3.04.61.05.92.03.31-.02.62-.07.91-.15,1.75-.48,3.05-1.97,3.3-3.77.04-.3.05-.61.03-.92-.17-2.51-2.34-4.41-4.84-4.24Z"/>
        <path class="cls-2" d="M377.06,26.65c-.17-.6-.45-1.15-.82-1.63-.18-.24-.39-.46-.62-.66-.68-.59-1.53-.99-2.45-1.12-.31-.04-.63-.05-.95-.03-.32.02-.64.08-.94.16-1.81.5-3.15,2.04-3.41,3.89-.04.31-.05.63-.03.95.02.32.07.64.16.94.5,1.81,2.03,3.15,3.89,3.41.31.04.63.05.95.03.32-.02.64-.07.94-.16.9-.25,1.69-.76,2.28-1.43.2-.23.37-.47.53-.73.3-.52.51-1.1.59-1.72.04-.31.05-.63.03-.95-.02-.32-.08-.64-.16-.94Z"/>
        <path class="cls-2" d="M342.71,145.14c1.71-.11,3-1.59,2.89-3.3-.11-1.71-1.59-3-3.3-2.89-1.71.11-3,1.59-2.89,3.3.11,1.71,1.59,3,3.3,2.89Z"/>
        <path class="cls-2" d="M382.44,138.81c-.11-.39-.29-.74-.53-1.05-.12-.15-.25-.3-.4-.42-.44-.38-.99-.64-1.59-.73-.2-.03-.41-.04-.61-.02-.21.01-.41.05-.61.1-1.17.32-2.04,1.32-2.2,2.51-.03.2-.03.41-.02.61.01.21.05.41.1.61.32,1.17,1.31,2.04,2.51,2.2.2.03.41.03.62.02.21-.01.41-.05.61-.1.58-.16,1.09-.49,1.48-.93.13-.15.24-.3.34-.47.2-.34.33-.71.38-1.11.03-.2.04-.41.02-.61-.01-.21-.05-.41-.1-.61Z"/>
        <path class="cls-2" d="M362.19,162.48c1.54-.1,2.71-1.44,2.61-2.98-.1-1.54-1.44-2.71-2.98-2.61-1.54.1-2.71,1.44-2.61,2.98.1,1.54,1.44,2.71,2.98,2.61Z"/>
        <path class="cls-2" d="M322.11,162.35c.1,1.53,1.42,2.69,2.95,2.59,1.53-.1,2.69-1.42,2.59-2.95-.1-1.53-1.42-2.69-2.95-2.59-1.53.1-2.69,1.43-2.59,2.95Z"/>
        <path class="cls-2" d="M360.16,117.89c-2.05.14-3.6,1.91-3.47,3.96.14,2.05,1.91,3.6,3.96,3.47,2.05-.14,3.6-1.91,3.46-3.96-.14-2.05-1.91-3.6-3.96-3.47Z"/>
        <path class="cls-2" d="M323.05,120.35c-2.05.14-3.6,1.91-3.47,3.96.14,2.05,1.91,3.6,3.96,3.47,2.05-.14,3.6-1.91,3.46-3.96-.14-2.05-1.91-3.6-3.96-3.47Z"/>
        <path class="cls-2" d="M340.38,100.56c-2.05.14-3.6,1.91-3.47,3.96.02.26.06.5.12.74.39,1.43,1.61,2.5,3.08,2.7.24.03.5.04.75.03.26-.02.5-.06.74-.12,1.43-.39,2.5-1.61,2.7-3.08.03-.24.04-.5.03-.75-.14-2.05-1.91-3.6-3.96-3.47Z"/>
        <path class="cls-2" d="M381.32,100.83c-.13-.48-.35-.91-.65-1.29-.15-.19-.31-.36-.49-.52-.54-.47-1.21-.79-1.94-.89-.24-.03-.5-.04-.75-.03-.26.02-.5.06-.74.12-1.43.39-2.5,1.61-2.7,3.08-.03.24-.04.5-.03.75.02.26.06.5.12.74.39,1.43,1.61,2.5,3.08,2.7.24.03.5.04.75.03.26-.02.5-.06.74-.12.71-.2,1.34-.6,1.81-1.14.16-.18.3-.37.42-.58.24-.41.4-.87.47-1.36.03-.24.04-.5.03-.75-.02-.26-.06-.5-.13-.74Z"/>
        <path class="cls-2" d="M364.51,199.6c1.18-.08,2.07-1.1,1.99-2.28-.08-1.18-1.1-2.07-2.28-1.99-1.18.08-2.07,1.1-1.99,2.28.08,1.18,1.1,2.07,2.28,1.99Z"/>
        <path class="cls-2" d="M324.55,199.29c.11,1.62,1.51,2.85,3.13,2.74,1.62-.11,2.85-1.51,2.74-3.13-.11-1.62-1.51-2.85-3.13-2.74-1.62.11-2.85,1.51-2.74,3.13Z"/>
        <path class="cls-2" d="M344.21,177.13c-1.41.09-2.47,1.31-2.38,2.71.09,1.41,1.31,2.47,2.71,2.38,1.4-.09,2.47-1.31,2.37-2.71-.09-1.4-1.31-2.47-2.71-2.38Z"/>
        <path class="cls-2" d="M385.02,175.84c-.11-.4-.29-.76-.54-1.08-.12-.16-.26-.3-.41-.43-.45-.39-1.01-.66-1.62-.74-.2-.03-.41-.04-.63-.02-.21.01-.42.05-.62.1-1.19.33-2.08,1.34-2.25,2.57-.03.2-.04.41-.02.63.01.21.05.42.1.62.33,1.19,1.34,2.08,2.57,2.25.2.03.41.04.63.02.21-.01.42-.05.62-.1.6-.16,1.12-.5,1.51-.95.13-.15.25-.31.35-.48.2-.34.34-.73.39-1.14.03-.2.04-.41.02-.63-.01-.21-.05-.42-.1-.62Z"/>
        <path class="cls-2" d="M270.35,70.26c-.19-2.82-2.62-4.95-5.44-4.77-2.82.19-4.95,2.63-4.77,5.44.19,2.82,2.62,4.95,5.44,4.77,2.82-.19,4.95-2.62,4.76-5.44Z"/>
        <path class="cls-2" d="M302.71,63.91c-.31-.04-.63-.05-.96-.03-2.61.17-4.58,2.43-4.41,5.04.17,2.61,2.43,4.58,5.04,4.41.33-.02.64-.08.94-.16,2.12-.58,3.62-2.59,3.47-4.88-.15-2.28-1.9-4.08-4.08-4.38Z"/>
        <path class="cls-2" d="M288.07,88.79c-.15-2.23-2.07-3.92-4.3-3.77-2.23.15-3.92,2.08-3.77,4.3.15,2.23,2.07,3.92,4.3,3.77,2.23-.15,3.91-2.07,3.77-4.3Z"/>
        <path class="cls-2" d="M242.84,90.97c.18,2.68,2.49,4.71,5.17,4.53,2.67-.18,4.7-2.49,4.53-5.17-.18-2.68-2.49-4.71-5.17-4.53-2.68.18-4.71,2.49-4.53,5.17Z"/>
        <path class="cls-2" d="M273.58,144.9c-.17-2.64-2.46-4.65-5.1-4.47-2.65.18-4.65,2.46-4.47,5.11.18,2.65,2.46,4.65,5.11,4.47,2.64-.17,4.65-2.46,4.47-5.11Z"/>
        <path class="cls-2" d="M306.48,140.16c-.24-.03-.5-.04-.75-.03-2.05.14-3.6,1.91-3.47,3.96.14,2.05,1.91,3.6,3.96,3.47.26-.02.5-.06.74-.12,1.67-.46,2.84-2.04,2.72-3.83-.12-1.79-1.49-3.21-3.2-3.44Z"/>
        <path class="cls-2" d="M284.93,163.87c.14,2.05,1.91,3.6,3.96,3.47,2.05-.14,3.6-1.91,3.46-3.96-.14-2.05-1.91-3.6-3.96-3.47-2.05.14-3.6,1.91-3.47,3.96Z"/>
        <path class="cls-2" d="M256.9,164.87c-.17-2.52-2.35-4.43-4.86-4.26-2.52.17-4.43,2.35-4.26,4.87.17,2.52,2.34,4.43,4.87,4.26,2.52-.17,4.43-2.34,4.26-4.87Z"/>
        <path class="cls-2" d="M286.68,121.04c-2.52.17-4.43,2.35-4.26,4.87.17,2.52,2.34,4.43,4.87,4.26,2.52-.17,4.43-2.34,4.26-4.87-.17-2.52-2.35-4.43-4.86-4.26Z"/>
        <path class="cls-2" d="M249.12,124.59c-2.23.15-3.92,2.08-3.77,4.3.15,2.23,2.07,3.92,4.3,3.77,2.23-.15,3.91-2.07,3.77-4.3-.15-2.23-2.08-3.92-4.3-3.77Z"/>
        <path class="cls-2" d="M267.26,103.09c-2.7.18-4.75,2.52-4.57,5.22.02.34.08.67.16.98.52,1.89,2.12,3.29,4.06,3.56.32.04.66.06.99.03.34-.02.66-.08.98-.16,1.88-.52,3.29-2.12,3.56-4.06.04-.32.06-.66.03-.99-.18-2.7-2.52-4.75-5.22-4.57Z"/>
        <path class="cls-2" d="M305.16,101.01c-.31-.04-.63-.05-.96-.03-2.61.17-4.58,2.43-4.41,5.04.02.33.08.64.16.95.5,1.82,2.05,3.18,3.92,3.43.31.04.63.05.96.03.33-.02.64-.08.94-.16,1.82-.5,3.18-2.05,3.43-3.92.04-.31.05-.63.03-.96-.15-2.28-1.9-4.08-4.08-4.38Z"/>
        <path class="cls-2" d="M290.44,204.5c1.55-.1,2.72-1.44,2.62-2.99-.1-1.55-1.44-2.72-2.99-2.62-1.55.1-2.72,1.44-2.62,2.99.1,1.55,1.44,2.72,2.99,2.62Z"/>
        <path class="cls-2" d="M257.7,202.94c-.14-2.05-1.91-3.6-3.96-3.47-2.05.14-3.6,1.91-3.47,3.96.14,2.05,1.91,3.6,3.96,3.47,2.05-.14,3.6-1.91,3.46-3.96Z"/>
        <path class="cls-2" d="M271.08,179.69c-2.05.14-3.6,1.91-3.47,3.96.14,2.05,1.91,3.6,3.96,3.47,2.05-.14,3.6-1.91,3.46-3.96-.14-2.05-1.91-3.6-3.96-3.47Z"/>
        <path class="cls-2" d="M307.15,180.44c-.14-.02-.28-.02-.43-.02-1.18.08-2.07,1.1-1.99,2.27.08,1.18,1.09,2.07,2.27,1.99.15,0,.29-.03.43-.07.96-.26,1.63-1.17,1.56-2.2-.07-1.03-.86-1.84-1.84-1.97Z"/>
        <path class="cls-2" d="M200.74,149.57c-.18-2.73-2.54-4.8-5.27-4.61-2.73.18-4.8,2.54-4.62,5.27.18,2.73,2.54,4.8,5.27,4.61,2.73-.18,4.79-2.54,4.61-5.27Z"/>
        <path class="cls-2" d="M232.45,143c-2.61.17-4.58,2.43-4.41,5.04.17,2.61,2.43,4.58,5.04,4.41,2.61-.17,4.58-2.43,4.41-5.04-.17-2.61-2.43-4.58-5.04-4.41Z"/>
        <path class="cls-2" d="M218.77,167.92c-.15-2.23-2.08-3.92-4.3-3.77-2.23.15-3.92,2.08-3.77,4.31.15,2.23,2.07,3.92,4.31,3.77,2.23-.15,3.92-2.07,3.77-4.31Z"/>
        <path class="cls-2" d="M176.83,163.55c-3.08.2-5.41,2.87-5.21,5.94.2,3.08,2.86,5.41,5.94,5.21,3.08-.2,5.41-2.86,5.2-5.94-.2-3.08-2.87-5.41-5.94-5.21Z"/>
        <path class="cls-2" d="M208.18,130.45c.18,2.73,2.53,4.79,5.26,4.61,2.72-.18,4.78-2.53,4.6-5.26-.18-2.72-2.54-4.79-5.26-4.61-2.73.18-4.79,2.54-4.61,5.26Z"/>
        <path class="cls-2" d="M230.31,105.21c-2.8.19-4.92,2.61-4.73,5.4.02.35.08.69.17,1.01.54,1.95,2.2,3.41,4.2,3.68.33.05.68.06,1.03.04.35-.02.69-.08,1.01-.17,1.95-.54,3.41-2.2,3.68-4.2.05-.33.06-.68.04-1.03-.19-2.79-2.6-4.92-5.4-4.73Z"/>
        <path class="cls-2" d="M225.55,92.99c-.15-2.73-2.49-4.82-5.21-4.68-2.73.15-4.82,2.49-4.67,5.22.15,2.73,2.48,4.82,5.22,4.67,2.73-.15,4.82-2.48,4.67-5.22Z"/>
        <path class="cls-2" d="M216.64,201.93c-2.05.14-3.6,1.91-3.47,3.96.14,2.05,1.91,3.6,3.96,3.47,2.05-.14,3.6-1.91,3.46-3.96-.14-2.05-1.91-3.6-3.96-3.47Z"/>
        <path class="cls-2" d="M181.05,211.74c2.61-.17,4.59-2.43,4.42-5.05-.17-2.61-2.43-4.59-5.05-4.42-2.62.17-4.59,2.44-4.42,5.05.17,2.62,2.43,4.59,5.05,4.42Z"/>
        <path class="cls-2" d="M197.52,183.17c-2.44.16-4.29,2.28-4.13,4.72.16,2.44,2.27,4.29,4.72,4.13,2.44-.16,4.29-2.27,4.13-4.72-.16-2.44-2.27-4.29-4.72-4.13Z"/>
        <path class="cls-2" d="M233.97,182.15c-2.05.14-3.6,1.91-3.47,3.96.14,2.05,1.91,3.6,3.96,3.47,2.05-.14,3.6-1.91,3.46-3.96-.14-2.05-1.91-3.6-3.96-3.47Z"/>
        <path class="cls-2" d="M161,184.34c-2.8.19-4.92,2.61-4.73,5.4.19,2.8,2.6,4.92,5.4,4.73,2.79-.18,4.91-2.6,4.73-5.4-.18-2.79-2.6-4.92-5.4-4.73Z"/>
        <path class="cls-2" d="M292.13,50.12c-.21-3.12-2.9-5.48-6.02-5.28-3.12.21-5.48,2.91-5.28,6.02.21,3.12,2.9,5.48,6.02,5.28,3.12-.21,5.48-2.9,5.27-6.02Z"/>
        <path class="cls-2" d="M415.83,128.99c-1.53.1-2.69,1.43-2.59,2.96.1,1.53,1.42,2.69,2.96,2.59,1.53-.1,2.69-1.42,2.59-2.96-.1-1.53-1.43-2.69-2.96-2.59Z"/>
        <path class="cls-2" d="M433.35,110.82c-1.65.11-2.89,1.53-2.78,3.18.11,1.65,1.53,2.89,3.18,2.78,1.64-.11,2.89-1.53,2.78-3.18-.11-1.64-1.53-2.89-3.17-2.78Z"/>
        <path class="cls-2" d="M452.57,87.53c-1.58.1-2.78,1.47-2.68,3.06.1,1.58,1.47,2.78,3.06,2.68,1.58-.1,2.78-1.47,2.68-3.06-.1-1.58-1.47-2.78-3.05-2.68Z"/>
        <path class="cls-2" d="M399.83,195.51c1.12-.07,1.97-1.04,1.89-2.16-.07-1.12-1.04-1.97-2.16-1.89-1.12.07-1.97,1.04-1.89,2.16.07,1.12,1.04,1.97,2.16,1.89Z"/>
        <path class="cls-2" d="M483.56,55.81c-1.57.1-2.75,1.46-2.65,3.02.1,1.57,1.46,2.75,3.02,2.65,1.56-.1,2.75-1.46,2.65-3.02-.1-1.56-1.46-2.75-3.02-2.65Z"/>
        <path class="cls-2" d="M504.8,40.44c1.95-.13,3.43-1.82,3.3-3.77-.13-1.95-1.82-3.43-3.77-3.3-1.95.13-3.43,1.82-3.3,3.77.13,1.95,1.82,3.43,3.77,3.3Z"/>
        <path class="cls-2" d="M471.06,75.56c1.37-.09,2.42-1.15,2.34-2.37-.08-1.22-1.26-2.13-2.63-2.04-1.38.09-2.42,1.15-2.34,2.37.08,1.22,1.26,2.13,2.63,2.04Z"/>
        <path class="cls-2" d="M392.28,8.47c-2.51.17-4.41,2.34-4.24,4.84.02.31.07.62.15.91.48,1.75,1.97,3.06,3.77,3.3.3.04.61.05.92.03.31-.02.62-.07.91-.15,1.75-.48,3.05-1.97,3.3-3.77.04-.3.05-.61.03-.92-.17-2.51-2.34-4.41-4.84-4.24Z"/>
        <path class="cls-2" d="M429.01,3.49c-2.51.17-4.41,2.34-4.24,4.84.02.31.07.62.15.91.48,1.75,1.97,3.06,3.77,3.3.3.04.61.05.92.03.31-.02.62-.07.91-.15,1.75-.48,3.05-1.97,3.3-3.77.04-.3.05-.61.03-.92-.17-2.51-2.34-4.41-4.84-4.24Z"/>
        <path class="cls-2" d="M466.55,3.06c-2.51.17-4.41,2.34-4.24,4.84.02.31.07.62.15.91.48,1.75,1.97,3.06,3.77,3.3.3.04.61.05.92.03.31-.02.62-.07.91-.15,1.75-.48,3.05-1.97,3.3-3.77.04-.3.05-.61.03-.92-.17-2.51-2.34-4.41-4.84-4.24Z"/>
        <path class="cls-2" d="M466.55,3.06c-2.51.17-4.41,2.34-4.24,4.84.02.31.07.62.15.91.48,1.75,1.97,3.06,3.77,3.3.3.04.61.05.92.03.31-.02.62-.07.91-.15,1.75-.48,3.05-1.97,3.3-3.77.04-.3.05-.61.03-.92-.17-2.51-2.34-4.41-4.84-4.24Z"/>
        <path class="cls-2" d="M414.12,171.16c1.12-.07,1.97-1.04,1.89-2.16-.07-1.12-1.04-1.97-2.16-1.9-1.12.07-1.97,1.04-1.89,2.16.07,1.12,1.04,1.97,2.16,1.89Z"/>
        <path class="cls-2" d="M523.57,14.43c-2.51.17-4.41,2.34-4.24,4.84.02.31.07.62.15.91.48,1.75,1.97,3.06,3.77,3.3.3.04.61.05.92.03.31-.02.62-.07.91-.15,1.75-.48,3.05-1.97,3.3-3.77.04-.3.05-.61.03-.92-.17-2.51-2.34-4.41-4.84-4.24Z"/>
        <path class="cls-2" d="M176.9,137.5c-2.51.17-4.41,2.34-4.24,4.84.02.31.07.62.15.91.48,1.75,1.97,3.06,3.77,3.3.3.04.61.05.92.03.31-.02.62-.07.91-.15,1.75-.48,3.05-1.97,3.3-3.77.04-.3.05-.61.03-.92-.17-2.51-2.34-4.41-4.84-4.24Z"/>
      </g>
      <g>
        <path class="cls-2" d="M205.69,113.53c-.15-2.73-2.49-4.82-5.21-4.67-2.73.15-4.82,2.49-4.67,5.22.15,2.73,2.48,4.82,5.22,4.67,2.73-.15,4.82-2.48,4.67-5.22Z"/>
        <path class="cls-2" d="M200.75,119.25c-2.87,0-5.28-2.25-5.44-5.16-.08-1.45.41-2.85,1.38-3.94.97-1.09,2.31-1.73,3.76-1.81,1.47-.08,2.85.41,3.93,1.39,1.08.97,1.73,2.31,1.81,3.76h0c.08,1.45-.41,2.85-1.38,3.94-.97,1.08-2.31,1.72-3.76,1.8-.1,0-.2,0-.3,0ZM200.75,109.34c-.08,0-.17,0-.25,0-1.19.07-2.28.59-3.07,1.48-.79.89-1.19,2.03-1.13,3.21.13,2.45,2.27,4.32,4.69,4.2,1.19-.06,2.28-.59,3.07-1.47s1.2-2.03,1.13-3.21h0c-.07-1.19-.59-2.28-1.47-3.07-.82-.74-1.87-1.14-2.96-1.14Z"/>
      </g>
    </g>
  </g>
</svg>