<?xml version="1.0" encoding="UTF-8"?>
<svg id="Capa_2" data-name="Capa 2" xmlns="http://www.w3.org/2000/svg" viewBox="0 0 4156.83 1036.19">
  <defs>
    <style>
      .cls-1 {
        fill: #1d1d1b;
      }

      .cls-1, .cls-2 {
        stroke: #1d1d1b;
      }

      .cls-1, .cls-2, .cls-3 {
        stroke-miterlimit: 10;
      }

      .cls-4 {
        letter-spacing: -.01em;
      }

      .cls-2 {
        fill: none;
        stroke-linecap: round;
        stroke-width: 6px;
      }

      .cls-5 {
        letter-spacing: 0em;
      }

      .cls-6 {
        letter-spacing: 0em;
      }

      .cls-7 {
        letter-spacing: 0em;
      }

      .cls-8 {
        font-family: PublicSansRoman-SemiBold, 'Public Sans';
        font-size: 164px;
        font-variation-settings: 'wght' 600;
        font-weight: 600;
      }

      .cls-3 {
        stroke: #000;
      }

      .cls-9 {
        letter-spacing: 0em;
      }

      .cls-10 {
        letter-spacing: 0em;
      }

      .cls-11 {
        letter-spacing: 0em;
      }

      .cls-12 {
        font-family: MontserratAlternates-ExtraBoldItalic, 'Montserrat Alternates';
        font-size: 291px;
        font-style: italic;
        font-weight: 700;
      }

      .cls-13 {
        fill: #000100;
      }

      .cls-14 {
        letter-spacing: -.02em;
      }

      .cls-15 {
        letter-spacing: 0em;
      }

      .cls-16 {
        letter-spacing: 0em;
      }

      .cls-17 {
        letter-spacing: -.01em;
      }

      .cls-18 {
        letter-spacing: 0em;
      }
    </style>
  </defs>
  <g id="Capa_1-2" data-name="Capa 1">
    <g>
      <g>
        <g>
          <path class="cls-2" d="M774.94,337.39c-1.51-4.89-3-9.72-4.45-14.49-15.53-50.81-28.35-95.31-38.38-131.23-4.29-15.36-8.07-29.16-11.34-41.2-29.36,32.95-77.76,38.11-117.14,41.72-99.02,9.07-189.28,12.72-189.28,12.72,7.16-21.95,19.25-52.38,40.02-85.33,8.22-13.03,25.04-39.74,46.91-60.02,15.33-14.21,35.28-27.29,57.05-37.43-26.24-6.68-155.77-40.01-276.46,30.7-80.87,47.4-120.21,115.35-135.48,145.84-9.84-4.26-20.88-7.06-32.86-7-61.49.36-110.53,76.35-110.55,142.41-.02,69.15,53.71,141.75,110.55,142.39,19.38.22,35.88-7.97,47.92-16.36.16,13.85,1.64,29.55,8.23,52.74,40.84,143.63,218.62,192.21,226.71,194.3,68.39,17.64,176.37-5.16,201.68-11.05,0-.36,31.78-7.4,50.79-18.2,21.95-12.47,150.35-94.98,163.69-171.87,6.51-37.51-3.75-58.87-37.63-168.63Z"/>
          <path class="cls-2" d="M548.4,444.19c10.48,46.3,44.28,78.15,75.5,71.13,31.22-7.02,48.04-50.25,37.56-96.55-10.48-46.3-44.28-78.15-75.5-71.13,0,0-28.38,12.37-27.86,46.63.51,34.26-26.67-99.19-26.67-99.19"/>
          <path class="cls-2" d="M421.66,324.55s8.21,57.45,20.52,71.76"/>
          <path class="cls-2" d="M643.24,295.08s8.31,32.52,21.34,52.56"/>
          <path class="cls-2" d="M187.38,239.34c-6.02-13.89-19.89-31.57-40.98-40.68"/>
          <path class="cls-2" d="M159.02,461.76c9.89-6.18,23.2-16.32,34.76-32.18,4.7-6.45,8.29-12.72,11.07-18.41"/>
          <g>
            <path class="cls-2" d="M147.82,393.94c0,19.92-16.21,36.06-36.19,36.06-7.24,0-13.99-2.12-19.63-5.78-.02-.02-.05-.02-.06-.03-2.41-1.56-4.64-3.41-6.59-5.49-3.45-4.04-6.39-9.56-8.85-16.16-.68-2.75-1.04-5.64-1.04-8.6,0-19.93,16.2-36.08,36.18-36.08s36.19,16.14,36.19,36.08Z"/>
            <path class="cls-2" d="M85.35,418.7c-4.24-4.46-7.35-10-8.85-16.16,2.46,6.6,5.39,12.12,8.85,16.16Z"/>
            <path class="cls-2" d="M80.92,412.34c-50.74-77.99,0-171.43,0-171.43"/>
          </g>
          <g>
            <path class="cls-13" d="M703.27,24.35c28.05,25.95,42.93,79.58,24.1,115.29-.93,1.78-3.63,6.41-9.04,12.48-29.36,32.95-77.76,38.11-117.14,41.72-99.02,9.07-189.28,12.72-189.28,12.72,7.16-21.95,19.25-52.38,40.02-85.33,8.22-13.03,25.04-39.74,46.91-60.02,15.33-14.21,35.28-27.29,57.05-37.43,51.3-23.89,112.69-31.5,147.37.57Z"/>
            <path class="cls-2" d="M727.37,139.64c-.93,1.78-3.63,6.41-9.04,12.48-29.36,32.95-77.76,38.11-117.14,41.72-99.02,9.07-189.28,12.72-189.28,12.72,7.16-21.95,19.25-52.38,40.02-85.33,8.22-13.03,25.04-39.74,46.91-60.02,15.33-14.21,35.28-27.29,57.05-37.43,51.3-23.89,112.69-31.5,147.37.57,28.05,25.95,42.93,79.58,24.1,115.29Z"/>
          </g>
          <path class="cls-2" d="M837.85,248.2c-5.46,32.92-29.68,69.86-66.66,76.35-15.53-50.81-28.35-95.31-38.38-131.23l14.41-16.05c6.78-5.44,24.4-17.97,44.41-14.54,32.68,5.6,52.06,50.32,46.22,85.47Z"/>
          <path class="cls-2" d="M480.99,561.28c30.56-13.31,69.54-26.98,115.92-35.79,30.15-5.73,70.65-8.33,94.89-9.2"/>
          <path class="cls-1" d="M705.24,705.41l-18.69-9.53,11.34,31.75-16.4-13.2,9.71,27.02-12.77-8.46,2.6,27.2.08.2-.06-.08.02.08-.05-.11-16.89-20.37-2.78,15.94-11.98-25.92-1.96,22.02-14.11-30.4-6.02,21.41-13.1-32.27-5,31.69c-2.98-15.25-5.96-30.48-8.94-45.71-.06-.35-.14-.69-.2-1.04,13.42-3.86,31.88-7.86,50.8-18.88,21.57-12.56,40.22-26.71,40.22-26.71l25.93,40.39-25.03-17.21,13.29,32.18Z"/>
          <line class="cls-2" x1="411.9" y1="206.56" x2="176.51" y2="221.85"/>
        </g>
        <g>
          <path class="cls-3" d="M474.22,47.33c2.32-.15,4.07-2.16,3.92-4.48-.15-2.32-2.16-4.07-4.48-3.92-2.32.15-4.07,2.16-3.92,4.48.15,2.32,2.16,4.07,4.48,3.92Z"/>
          <path class="cls-3" d="M490.5,19.76c-2.27.15-3.99,2.12-3.84,4.38.02.28.07.56.14.82.43,1.58,1.78,2.77,3.41,2.99.27.04.55.05.83.03.28-.02.56-.07.82-.14,1.58-.43,2.76-1.78,2.99-3.41.04-.27.05-.55.03-.83-.15-2.27-2.11-3.99-4.38-3.84Z"/>
          <path class="cls-3" d="M418.2,62.06c-2.17.14-3.81,2.02-3.66,4.18.14,2.17,2.01,3.81,4.18,3.66,2.16-.14,3.8-2.01,3.66-4.18-.14-2.16-2.02-3.81-4.18-3.66Z"/>
          <path class="cls-3" d="M456.24,58.76c-.3.02-.59.07-.87.15-1.67.46-2.91,1.88-3.15,3.59-.04.29-.05.58-.03.88.02.3.07.59.15.87.46,1.67,1.88,2.91,3.59,3.15.29.04.58.05.88.03,2.39-.16,4.2-2.22,4.04-4.61-.16-2.39-2.23-4.2-4.61-4.04Z"/>
          <path class="cls-3" d="M437.38,81.76c-1.6.11-2.81,1.49-2.7,3.09.11,1.6,1.49,2.81,3.09,2.7,1.6-.11,2.81-1.49,2.7-3.09-.11-1.6-1.49-2.81-3.09-2.7Z"/>
          <path class="cls-3" d="M400.49,82.45c-2.08.14-3.65,1.94-3.52,4.01.14,2.08,1.93,3.65,4.01,3.52,2.08-.14,3.65-1.93,3.51-4.01-.14-2.08-1.94-3.65-4.01-3.52Z"/>
          <path class="cls-3" d="M436.14,49.85c2.08-.14,3.65-1.93,3.51-4.01-.14-2.08-1.94-3.65-4.01-3.52-2.08.14-3.65,1.94-3.52,4.01.14,2.08,1.93,3.65,4.01,3.52Z"/>
          <path class="cls-3" d="M394.48,48.82c.14,2.08,1.93,3.65,4.01,3.52,2.08-.14,3.65-1.93,3.51-4.01-.14-2.08-1.94-3.65-4.01-3.52-2.08.14-3.65,1.94-3.52,4.01Z"/>
          <path class="cls-3" d="M414.95,24.75c-2.41.16-4.23,2.24-4.07,4.65.02.3.07.59.15.87.46,1.68,1.89,2.93,3.62,3.17.29.04.58.05.89.03.3-.02.59-.07.87-.15,1.68-.46,2.93-1.89,3.17-3.62.04-.29.05-.58.03-.88-.16-2.41-2.24-4.23-4.65-4.07Z"/>
          <path class="cls-3" d="M452.7,22.25c-.29.02-.58.07-.85.14-1.64.45-2.87,1.85-3.1,3.54-.04.28-.05.57-.03.86.02.29.07.58.14.85.45,1.64,1.85,2.87,3.53,3.1.28.04.57.05.86.03.29-.02.58-.07.85-.14,1.64-.45,2.86-1.85,3.09-3.53.04-.28.05-.57.03-.86-.16-2.35-2.19-4.13-4.54-3.98Z"/>
          <path class="cls-3" d="M405.05,165.34c1.57-.1,2.75-1.46,2.65-3.03-.1-1.57-1.46-2.75-3.03-2.65-1.57.1-2.75,1.46-2.65,3.03.1,1.57,1.46,2.75,3.03,2.65Z"/>
          <path class="cls-3" d="M402.89,120.32c-2.02.13-3.55,1.88-3.42,3.9.13,2.02,1.88,3.55,3.9,3.42,2.02-.13,3.55-1.88,3.42-3.9-.13-2.02-1.88-3.55-3.9-3.42Z"/>
          <path class="cls-3" d="M419.75,101.8c-1.6.11-2.8,1.49-2.7,3.08.01.2.05.39.1.58.31,1.11,1.25,1.94,2.4,2.1.19.03.39.03.59.02.2-.01.39-.05.58-.1,1.11-.31,1.94-1.25,2.1-2.4.03-.19.03-.39.02-.59-.11-1.59-1.49-2.8-3.08-2.7Z"/>
          <path class="cls-3" d="M343.98,64.5c-2.85.19-5,2.65-4.81,5.5.19,2.85,2.65,5,5.5,4.81,2.84-.19,5-2.65,4.81-5.49-.19-2.84-2.65-5-5.49-4.81Z"/>
          <path class="cls-3" d="M384.65,67.42c-.14-.51-.37-.97-.69-1.37-.16-.2-.33-.38-.52-.55-.57-.5-1.28-.84-2.06-.94-.26-.04-.53-.05-.8-.03-.27.02-.54.06-.79.13-1.52.42-2.65,1.71-2.86,3.27-.04.26-.05.53-.03.8.02.27.06.54.13.79.42,1.52,1.71,2.65,3.27,2.86.26.04.53.05.8.03.27-.02.53-.06.79-.13.76-.21,1.42-.64,1.92-1.2.17-.19.31-.4.44-.61.26-.44.43-.93.5-1.45.04-.26.05-.53.03-.8-.02-.27-.06-.54-.13-.79Z"/>
          <path class="cls-3" d="M362.85,84.95c-2.08.14-3.65,1.94-3.52,4.01.14,2.08,1.93,3.65,4.01,3.52,2.08-.14,3.65-1.93,3.51-4.01-.14-2.08-1.94-3.65-4.01-3.52Z"/>
          <path class="cls-3" d="M326.73,94.9c2.64-.18,4.65-2.46,4.47-5.11-.17-2.64-2.46-4.65-5.11-4.48-2.65.18-4.65,2.47-4.48,5.11.18,2.65,2.46,4.65,5.11,4.48Z"/>
          <path class="cls-3" d="M356.75,49.92c.19,2.85,2.65,5.01,5.51,4.82,2.85-.19,5.01-2.65,4.82-5.51-.19-2.85-2.66-5.01-5.51-4.82-2.85.19-5.01,2.66-4.82,5.51Z"/>
          <path class="cls-3" d="M319.12,52.78c.18,2.65,2.46,4.65,5.11,4.48,2.64-.18,4.65-2.46,4.47-5.11-.17-2.64-2.46-4.65-5.11-4.48-2.65.18-4.65,2.47-4.48,5.11Z"/>
          <path class="cls-3" d="M339.39,29.74c-2.55.17-4.47,2.37-4.3,4.91.02.32.07.63.16.92.49,1.78,2,3.1,3.82,3.35.3.04.62.05.94.03.32-.02.63-.07.92-.15,1.77-.49,3.1-2,3.35-3.82.04-.3.05-.62.03-.94-.17-2.54-2.37-4.47-4.91-4.3Z"/>
          <path class="cls-3" d="M382.48,30.03c-.17-.61-.45-1.17-.83-1.65-.19-.24-.4-.46-.63-.67-.69-.6-1.55-1.01-2.49-1.14-.31-.04-.64-.05-.96-.03-.33.02-.65.08-.95.16-1.83.5-3.2,2.07-3.46,3.95-.04.31-.05.64-.03.96.02.33.08.65.16.95.5,1.83,2.06,3.2,3.95,3.46.31.04.64.05.97.03.33-.02.65-.08.95-.16.92-.25,1.72-.77,2.32-1.46.2-.23.38-.48.53-.74.31-.53.52-1.12.6-1.75.04-.31.05-.64.03-.96-.02-.33-.08-.65-.16-.95Z"/>
          <path class="cls-3" d="M347.63,150.23c1.73-.11,3.04-1.61,2.93-3.34-.11-1.73-1.61-3.04-3.34-2.93-1.73.11-3.04,1.61-2.93,3.34.11,1.73,1.61,3.04,3.34,2.93Z"/>
          <path class="cls-3" d="M387.94,143.82c-.11-.39-.29-.76-.54-1.07-.12-.16-.26-.3-.41-.43-.44-.39-1-.65-1.61-.74-.2-.03-.41-.04-.62-.02-.21.01-.42.05-.62.1-1.18.33-2.07,1.33-2.23,2.55-.03.2-.04.41-.02.62.01.21.05.42.1.62.32,1.18,1.33,2.07,2.55,2.23.2.03.41.04.62.02.21-.01.42-.05.61-.1.59-.16,1.11-.5,1.5-.94.13-.15.25-.31.34-.48.2-.34.33-.72.39-1.13.03-.2.04-.41.02-.62-.01-.21-.05-.42-.1-.62Z"/>
          <path class="cls-3" d="M367.4,167.83c1.56-.1,2.75-1.46,2.65-3.02-.1-1.56-1.46-2.75-3.02-2.65-1.57.1-2.75,1.46-2.65,3.02.1,1.57,1.46,2.75,3.02,2.65Z"/>
          <path class="cls-3" d="M326.73,167.7c.1,1.55,1.44,2.73,3,2.62,1.55-.1,2.73-1.44,2.62-3-.1-1.55-1.44-2.73-2.99-2.62-1.55.1-2.73,1.45-2.62,3Z"/>
          <path class="cls-3" d="M365.34,122.59c-2.08.14-3.65,1.94-3.52,4.01.14,2.08,1.93,3.65,4.01,3.52,2.08-.14,3.65-1.93,3.51-4.01-.14-2.08-1.94-3.65-4.01-3.52Z"/>
          <path class="cls-3" d="M327.69,125.09c-2.08.14-3.65,1.94-3.52,4.01.14,2.08,1.93,3.65,4.01,3.52,2.08-.14,3.65-1.93,3.51-4.01-.14-2.08-1.94-3.65-4.01-3.52Z"/>
          <path class="cls-3" d="M345.27,105.02c-2.08.14-3.65,1.94-3.52,4.01.02.26.06.51.13.75.4,1.45,1.63,2.53,3.12,2.74.25.03.5.04.76.03.26-.02.51-.06.75-.13,1.45-.4,2.53-1.63,2.74-3.12.03-.25.04-.5.03-.76-.14-2.08-1.94-3.65-4.01-3.52Z"/>
          <path class="cls-3" d="M386.8,105.29c-.13-.48-.36-.93-.66-1.31-.15-.19-.32-.37-.5-.53-.54-.48-1.23-.8-1.97-.9-.25-.03-.5-.04-.76-.03-.26.02-.51.06-.75.13-1.45.4-2.53,1.63-2.74,3.12-.03.25-.04.5-.03.76.02.26.06.51.13.75.4,1.45,1.63,2.53,3.12,2.74.25.03.5.04.76.03.26-.02.51-.06.75-.13.73-.2,1.36-.61,1.83-1.15.16-.18.3-.38.42-.59.24-.42.41-.89.48-1.38.03-.25.04-.5.03-.76-.02-.26-.06-.51-.13-.75Z"/>
          <path class="cls-3" d="M369.76,205.49c1.2-.08,2.1-1.11,2.02-2.31-.08-1.2-1.11-2.1-2.31-2.02-1.2.08-2.1,1.11-2.02,2.31.08,1.2,1.11,2.1,2.31,2.02Z"/>
          <path class="cls-3" d="M329.21,205.17c.11,1.65,1.53,2.89,3.18,2.78,1.64-.11,2.89-1.53,2.78-3.18-.11-1.65-1.53-2.89-3.18-2.78-1.65.11-2.89,1.53-2.78,3.18Z"/>
          <path class="cls-3" d="M349.16,182.69c-1.43.09-2.5,1.33-2.41,2.75.09,1.43,1.33,2.5,2.75,2.41,1.42-.09,2.5-1.33,2.41-2.75-.09-1.42-1.33-2.5-2.75-2.41Z"/>
          <path class="cls-3" d="M390.56,181.38c-.11-.4-.3-.77-.55-1.09-.12-.16-.26-.31-.41-.44-.45-.4-1.02-.67-1.64-.75-.21-.03-.42-.04-.64-.02-.22.01-.43.05-.63.11-1.21.33-2.11,1.36-2.28,2.6-.03.21-.04.42-.02.64.01.22.05.43.11.63.33,1.21,1.36,2.11,2.6,2.28.21.03.42.04.64.02.22-.01.43-.05.63-.11.6-.17,1.13-.51,1.53-.96.13-.15.25-.32.35-.49.2-.35.34-.74.4-1.15.03-.21.04-.42.02-.64-.01-.22-.05-.43-.11-.63Z"/>
          <path class="cls-3" d="M274.23,74.27c-.19-2.86-2.66-5.02-5.52-4.83-2.86.19-5.02,2.66-4.83,5.52.19,2.86,2.66,5.02,5.52,4.83,2.86-.19,5.02-2.66,4.83-5.52Z"/>
          <path class="cls-3" d="M307.05,67.83c-.32-.04-.64-.06-.97-.03-2.65.18-4.65,2.47-4.48,5.11.18,2.65,2.46,4.65,5.11,4.48.33-.02.65-.08.96-.16,2.15-.59,3.67-2.63,3.52-4.95-.15-2.31-1.92-4.14-4.14-4.44Z"/>
          <path class="cls-3" d="M292.2,93.07c-.15-2.26-2.11-3.97-4.36-3.82-2.26.15-3.97,2.11-3.82,4.37.15,2.26,2.1,3.97,4.37,3.82,2.26-.15,3.97-2.1,3.82-4.37Z"/>
          <path class="cls-3" d="M246.32,95.28c.18,2.72,2.53,4.77,5.25,4.59,2.71-.18,4.77-2.53,4.59-5.24-.18-2.71-2.53-4.77-5.24-4.59-2.72.18-4.77,2.53-4.59,5.25Z"/>
          <path class="cls-3" d="M277.5,150c-.18-2.68-2.5-4.71-5.18-4.54-2.68.18-4.71,2.5-4.54,5.18.18,2.68,2.5,4.71,5.18,4.54,2.68-.18,4.71-2.5,4.54-5.18Z"/>
          <path class="cls-3" d="M310.88,145.18c-.25-.03-.5-.04-.76-.03-2.08.14-3.65,1.94-3.52,4.01.14,2.08,1.93,3.65,4.01,3.52.26-.02.51-.06.75-.13,1.69-.46,2.88-2.07,2.76-3.89-.12-1.82-1.51-3.25-3.25-3.49Z"/>
          <path class="cls-3" d="M289.02,169.24c.14,2.08,1.93,3.65,4.01,3.52,2.08-.14,3.65-1.93,3.51-4.01-.14-2.08-1.94-3.65-4.01-3.52-2.08.14-3.65,1.94-3.52,4.01Z"/>
          <path class="cls-3" d="M260.58,170.25c-.17-2.55-2.38-4.49-4.93-4.32-2.56.17-4.49,2.38-4.32,4.94.17,2.56,2.38,4.49,4.94,4.32,2.55-.17,4.49-2.38,4.32-4.94Z"/>
          <path class="cls-3" d="M290.8,125.79c-2.56.17-4.49,2.38-4.32,4.94.17,2.56,2.38,4.49,4.94,4.32,2.55-.17,4.49-2.38,4.32-4.94-.17-2.55-2.38-4.49-4.93-4.32Z"/>
          <path class="cls-3" d="M252.69,129.39c-2.26.15-3.97,2.11-3.82,4.37.15,2.26,2.1,3.97,4.37,3.82,2.26-.15,3.97-2.1,3.82-4.37-.15-2.26-2.11-3.97-4.36-3.82Z"/>
          <path class="cls-3" d="M271.09,107.58c-2.74.18-4.82,2.55-4.64,5.3.02.34.08.68.17.99.53,1.91,2.15,3.34,4.12,3.61.33.04.66.06,1.01.03.34-.02.67-.08.99-.17,1.91-.53,3.34-2.15,3.61-4.12.04-.33.06-.66.03-1.01-.18-2.74-2.55-4.82-5.29-4.64Z"/>
          <path class="cls-3" d="M309.55,105.47c-.32-.04-.64-.06-.97-.03-2.65.18-4.65,2.47-4.48,5.11.02.33.08.65.16.96.51,1.85,2.08,3.22,3.98,3.48.32.04.64.06.97.03.33-.02.65-.08.96-.16,1.85-.51,3.22-2.08,3.48-3.98.04-.32.06-.64.03-.97-.15-2.31-1.93-4.14-4.14-4.44Z"/>
          <path class="cls-3" d="M294.61,210.46c1.57-.1,2.76-1.46,2.66-3.03-.1-1.57-1.46-2.76-3.03-2.66-1.57.1-2.76,1.46-2.66,3.03.1,1.57,1.46,2.76,3.03,2.66Z"/>
          <path class="cls-3" d="M261.4,208.88c-.14-2.08-1.94-3.65-4.01-3.52-2.08.14-3.65,1.94-3.52,4.01.14,2.08,1.93,3.65,4.01,3.52,2.08-.14,3.65-1.93,3.51-4.01Z"/>
          <path class="cls-3" d="M274.96,185.29c-2.08.14-3.65,1.94-3.52,4.01.14,2.08,1.93,3.65,4.01,3.52,2.08-.14,3.65-1.93,3.51-4.01-.14-2.08-1.94-3.65-4.01-3.52Z"/>
          <path class="cls-3" d="M311.56,186.05c-.14-.02-.29-.02-.44-.02-1.19.08-2.1,1.11-2.02,2.3.08,1.19,1.11,2.1,2.3,2.02.15-.01.29-.03.43-.07.97-.27,1.65-1.19,1.58-2.23-.07-1.04-.87-1.87-1.87-2Z"/>
          <path class="cls-3" d="M203.6,154.73c-.18-2.77-2.58-4.86-5.34-4.68-2.77.18-4.86,2.58-4.68,5.35.18,2.77,2.58,4.86,5.35,4.68,2.77-.18,4.86-2.58,4.68-5.35Z"/>
          <path class="cls-3" d="M235.77,148.07c-2.65.18-4.65,2.47-4.48,5.11.18,2.65,2.46,4.65,5.11,4.48,2.64-.17,4.65-2.46,4.47-5.11-.18-2.64-2.46-4.65-5.11-4.48Z"/>
          <path class="cls-3" d="M221.9,173.35c-.15-2.26-2.11-3.98-4.37-3.83-2.26.15-3.98,2.11-3.83,4.37.15,2.26,2.1,3.98,4.37,3.83,2.26-.15,3.97-2.1,3.82-4.37Z"/>
          <path class="cls-3" d="M179.35,168.92c-3.13.21-5.49,2.91-5.28,6.03.21,3.13,2.91,5.49,6.03,5.28,3.12-.21,5.49-2.91,5.28-6.03-.21-3.12-2.91-5.49-6.03-5.28Z"/>
          <path class="cls-3" d="M211.16,135.34c.18,2.76,2.57,4.86,5.34,4.67,2.76-.18,4.85-2.57,4.67-5.34-.18-2.76-2.57-4.86-5.33-4.67-2.76.18-4.86,2.57-4.67,5.34Z"/>
          <path class="cls-3" d="M233.6,109.73c-2.84.19-4.99,2.64-4.8,5.48.02.35.08.7.17,1.03.54,1.98,2.23,3.46,4.26,3.73.34.05.69.06,1.04.04.35-.02.7-.08,1.03-.17,1.98-.54,3.46-2.23,3.73-4.26.05-.34.06-.69.04-1.04-.19-2.84-2.64-4.99-5.48-4.8Z"/>
          <path class="cls-3" d="M228.78,97.34c-.15-2.77-2.52-4.89-5.29-4.74-2.77.15-4.89,2.52-4.74,5.29.15,2.77,2.52,4.89,5.29,4.74,2.77-.15,4.89-2.52,4.74-5.29Z"/>
          <path class="cls-3" d="M219.74,207.85c-2.08.14-3.65,1.94-3.52,4.01.14,2.08,1.93,3.65,4.01,3.52,2.08-.14,3.65-1.93,3.51-4.01-.14-2.08-1.94-3.65-4.01-3.52Z"/>
          <path class="cls-3" d="M183.63,217.81c2.65-.18,4.66-2.47,4.48-5.12-.18-2.65-2.47-4.66-5.12-4.49-2.65.18-4.66,2.47-4.49,5.12.18,2.65,2.47,4.66,5.12,4.49Z"/>
          <path class="cls-3" d="M200.34,188.82c-2.48.16-4.36,2.31-4.19,4.79.16,2.48,2.31,4.36,4.79,4.19,2.48-.16,4.35-2.31,4.19-4.79-.16-2.48-2.31-4.36-4.78-4.19Z"/>
          <path class="cls-3" d="M237.32,187.78c-2.08.14-3.65,1.94-3.52,4.01.14,2.08,1.93,3.65,4.01,3.52,2.08-.14,3.65-1.93,3.51-4.01-.14-2.08-1.94-3.65-4.01-3.52Z"/>
          <path class="cls-3" d="M163.29,190c-2.84.19-4.99,2.64-4.8,5.48.19,2.84,2.64,4.99,5.48,4.8,2.84-.19,4.99-2.64,4.8-5.48-.19-2.84-2.64-4.99-5.48-4.8Z"/>
          <path class="cls-3" d="M296.33,53.84c-.21-3.16-2.95-5.56-6.11-5.35-3.17.21-5.56,2.95-5.35,6.11.21,3.17,2.94,5.56,6.11,5.35,3.16-.21,5.56-2.94,5.35-6.11Z"/>
          <path class="cls-3" d="M421.81,133.86c-1.55.1-2.73,1.45-2.63,3,.1,1.55,1.45,2.73,3,2.63,1.55-.1,2.73-1.45,2.63-3-.1-1.55-1.45-2.73-3-2.63Z"/>
          <path class="cls-3" d="M439.59,115.42c-1.67.11-2.93,1.55-2.82,3.22.11,1.67,1.55,2.93,3.22,2.82,1.67-.11,2.93-1.55,2.82-3.22-.11-1.67-1.55-2.93-3.22-2.82Z"/>
          <path class="cls-3" d="M459.09,91.79c-1.61.11-2.82,1.5-2.72,3.1.11,1.61,1.49,2.82,3.1,2.71,1.6-.11,2.82-1.49,2.71-3.1-.11-1.6-1.49-2.82-3.1-2.72Z"/>
          <path class="cls-3" d="M405.58,201.34c1.14-.08,2-1.06,1.92-2.19-.08-1.14-1.06-2-2.19-1.92-1.14.08-2,1.06-1.92,2.19.08,1.14,1.06,2,2.19,1.92Z"/>
          <path class="cls-3" d="M490.53,59.61c-1.59.11-2.79,1.48-2.68,3.07.11,1.59,1.48,2.79,3.07,2.68,1.59-.1,2.79-1.48,2.68-3.07-.11-1.59-1.48-2.79-3.06-2.68Z"/>
          <path class="cls-3" d="M512.07,44.02c1.98-.13,3.48-1.84,3.35-3.83-.13-1.98-1.85-3.48-3.82-3.35-1.98.13-3.48,1.85-3.35,3.83.13,1.98,1.84,3.48,3.83,3.35Z"/>
          <path class="cls-3" d="M477.85,79.65c1.39-.09,2.46-1.17,2.38-2.4-.08-1.23-1.28-2.16-2.67-2.07-1.4.09-2.46,1.17-2.38,2.4.08,1.24,1.28,2.16,2.67,2.07Z"/>
          <path class="cls-3" d="M397.93,11.58c-2.55.17-4.47,2.37-4.3,4.91.02.32.07.63.15.92.49,1.78,2,3.1,3.82,3.35.3.04.62.05.94.03.32-.02.63-.07.92-.15,1.77-.49,3.1-2,3.35-3.82.04-.3.05-.62.03-.94-.17-2.54-2.37-4.47-4.91-4.3Z"/>
          <path class="cls-3" d="M435.19,6.54c-2.55.17-4.47,2.37-4.3,4.91.02.32.07.63.15.92.49,1.78,2,3.1,3.82,3.35.3.04.62.05.94.03.32-.02.63-.07.92-.15,1.77-.49,3.1-2,3.35-3.82.04-.3.05-.62.03-.94-.17-2.54-2.37-4.47-4.91-4.3Z"/>
          <path class="cls-3" d="M473.27,6.1c-2.55.17-4.47,2.37-4.3,4.91.02.32.07.63.15.92.49,1.78,2,3.1,3.82,3.35.3.04.62.05.94.03.32-.02.63-.07.92-.15,1.77-.49,3.1-2,3.35-3.82.04-.3.05-.62.03-.94-.17-2.54-2.37-4.47-4.91-4.3Z"/>
          <path class="cls-3" d="M473.27,6.1c-2.55.17-4.47,2.37-4.3,4.91.02.32.07.63.15.92.49,1.78,2,3.1,3.82,3.35.3.04.62.05.94.03.32-.02.63-.07.92-.15,1.77-.49,3.1-2,3.35-3.82.04-.3.05-.62.03-.94-.17-2.54-2.37-4.47-4.91-4.3Z"/>
          <path class="cls-3" d="M420.08,176.63c1.14-.08,2-1.06,1.92-2.19-.08-1.14-1.06-2-2.19-1.92-1.14.08-2,1.06-1.92,2.2.08,1.14,1.06,2,2.19,1.92Z"/>
          <path class="cls-3" d="M531.12,17.64c-2.55.17-4.47,2.37-4.3,4.91.02.32.07.63.16.92.49,1.78,2,3.1,3.82,3.35.3.04.62.05.94.03.32-.02.63-.07.92-.15,1.77-.49,3.1-2,3.35-3.82.04-.3.05-.62.03-.94-.17-2.54-2.37-4.47-4.91-4.3Z"/>
          <path class="cls-3" d="M179.42,142.49c-2.55.17-4.47,2.37-4.3,4.91.02.32.07.63.15.92.49,1.78,2,3.1,3.82,3.35.3.04.62.05.94.03.32-.02.63-.07.92-.15,1.77-.49,3.1-2,3.35-3.82.04-.3.05-.62.03-.94-.17-2.54-2.37-4.47-4.91-4.3Z"/>
        </g>
        <path class="cls-3" d="M208.63,118.17c-.15-2.77-2.52-4.89-5.29-4.74-2.77.15-4.89,2.52-4.74,5.29.15,2.77,2.52,4.89,5.29,4.74,2.77-.15,4.89-2.52,4.74-5.29Z"/>
      </g>
      <text class="cls-12" transform="translate(969.24 377.33)"><tspan x="0" y="0">C</tspan><tspan class="cls-11" x="214.76" y="0">r</tspan><tspan x="343.08" y="0">istian Be</tspan><tspan class="cls-6" x="1720.08" y="0">r</tspan><tspan class="cls-15" x="1848.41" y="0">n</tspan><tspan x="2053.27" y="0">al</tspan></text>
      <text class="cls-8" transform="translate(974.24 585.26)"><tspan x="0" y="0">Dise</tspan><tspan class="cls-9" x="337.1" y="0">ñ</tspan><tspan x="432.71" y="0">ador g</tspan><tspan class="cls-4" x="924.05" y="0">r</tspan><tspan class="cls-14" x="987.68" y="0">a</tspan><tspan x="1076.33" y="0">fi</tspan><tspan class="cls-9" x="1183.66" y="0">c</tspan><tspan class="cls-18" x="1272.72" y="0">o</tspan><tspan class="cls-16" x="1365.62" y="0"> </tspan><tspan class="cls-10" x="1402.36" y="0">e</tspan><tspan x="1495.43" y="0"> </tspan><tspan class="cls-5" x="1533.72" y="0">i</tspan><tspan class="cls-17" x="1576.77" y="0">l</tspan><tspan x="1626.87" y="0">u</tspan><tspan class="cls-7" x="1723.38" y="0">s</tspan><tspan x="1807.19" y="0">t</tspan><tspan class="cls-4" x="1873.44" y="0">r</tspan><tspan x="1937.07" y="0">ador</tspan></text>
    </g>
  </g>
</svg>